<?xml version="1.0" standalone="no"?>
<!DOCTYPE svg PUBLIC "-//W3C//DTD SVG 20010904//EN"
 "http://www.w3.org/TR/2001/REC-SVG-20010904/DTD/svg10.dtd">
<svg version="1.0" xmlns="http://www.w3.org/2000/svg"
 width="955.000000pt" height="966.000000pt" viewBox="0 0 955.000000 966.000000"
 preserveAspectRatio="xMidYMid meet">

<g transform="translate(0.000000,966.000000) scale(0.100000,-0.100000)"
fill="#000000" stroke="none">
<path d="M10 4830 c0 -4287 2 -4830 15 -4830 13 0 15 542 15 4815 l0 4815
4755 0 c4220 0 4755 2 4755 15 0 13 -537 15 -4770 15 l-4770 0 0 -4830z"/>
<path d="M4119 9380 c-31 -30 -32 -33 -26 -98 5 -59 2 -78 -29 -167 -19 -55
-36 -118 -38 -140 -5 -58 -47 -165 -56 -141 -5 15 -11 8 -28 -32 -12 -28 -22
-55 -22 -60 0 -12 -53 -137 -111 -262 -33 -72 -46 -90 -63 -90 -12 0 -91 18
-176 40 -85 22 -157 40 -160 39 -3 0 9 -7 25 -14 52 -24 1 -17 -113 16 -59 17
-117 38 -130 46 -26 16 -239 66 -251 59 -12 -8 -215 37 -226 50 -16 19 -135
44 -161 34 -31 -12 -47 -46 -40 -82 7 -35 51 -95 76 -103 20 -6 290 -379 290
-399 0 -4 24 -44 54 -90 101 -154 249 -432 261 -489 8 -41 39 -67 81 -67 45 0
107 19 263 81 68 27 129 49 137 49 8 0 14 6 14 14 0 18 153 68 340 112 155 36
174 39 150 24 -27 -17 10 -12 136 20 145 36 437 105 482 115 18 4 30 10 27 14
-13 23 -308 19 -412 -4 -13 -3 -23 -1 -23 5 0 5 10 11 23 11 16 1 18 2 5 6
-10 2 -80 -7 -155 -20 -225 -41 -223 -41 -223 -24 0 13 -7 14 -52 2 -29 -7
-72 -21 -96 -29 -24 -9 -47 -14 -52 -11 -4 3 -52 -8 -106 -24 -55 -16 -119
-33 -144 -39 -25 -6 -96 -31 -159 -56 -63 -25 -116 -44 -117 -43 -9 12 -104
170 -104 173 0 3 -11 20 -24 37 -32 43 -102 176 -110 207 -3 14 -57 104 -120
200 -63 96 -111 176 -107 178 5 1 27 -1 49 -6 27 -6 42 -6 44 0 5 13 114 -8
144 -27 12 -8 46 -17 75 -21 30 -4 65 -13 79 -20 14 -7 95 -27 180 -44 85 -18
200 -43 255 -57 55 -14 114 -27 130 -30 46 -6 85 24 105 82 10 28 47 116 83
197 39 88 61 148 54 151 -14 4 43 157 59 157 6 0 15 15 21 33 28 82 61 168 66
170 3 1 25 -27 47 -63 66 -102 153 -210 222 -277 75 -73 203 -163 232 -163 12
0 38 -9 59 -20 49 -26 130 -27 181 -1 21 11 51 23 66 26 15 3 54 22 85 41 32
19 61 34 64 34 12 0 152 99 209 147 28 24 52 41 52 37 0 -4 -9 -40 -20 -79
-26 -91 -39 -165 -31 -165 4 0 -1 -34 -12 -76 -12 -51 -15 -79 -9 -83 7 -4 6
-27 -3 -71 -7 -36 -15 -105 -18 -155 -6 -86 -6 -88 8 -50 7 22 21 66 30 97 9
33 21 57 28 55 11 -2 27 53 58 205 7 31 17 56 23 55 6 -1 22 42 35 95 13 53
28 96 33 95 5 -1 26 52 47 118 21 66 54 161 74 211 41 100 42 111 25 149 -26
58 -102 39 -152 -39 -107 -165 -413 -414 -591 -482 -73 -27 -151 -26 -194 3
-18 13 -40 23 -48 23 -7 0 -31 17 -52 38 -22 20 -55 50 -76 66 -59 47 -233
293 -298 422 -15 30 -24 60 -20 72 7 27 -13 85 -35 105 -36 31 -60 30 -93 -3z"/>
<path d="M8795 8279 c-1072 -162 -1569 -223 -2710 -336 -148 -14 -274 -30
-279 -34 -4 -4 162 -8 370 -10 209 -1 476 -4 594 -6 373 -8 773 23 1650 127
184 22 348 43 364 46 l29 6 -6 -398 c-15 -978 -156 -1974 -413 -2902 -247
-894 -547 -1586 -1007 -2322 -238 -381 -495 -724 -786 -1050 l-40 -45 -1 65
c-1 36 -9 90 -19 120 l-18 55 56 107 c55 106 57 108 106 124 63 22 147 104
181 177 67 149 54 320 -37 471 l-41 68 16 79 c21 102 20 130 -3 211 -21 72
-18 153 4 144 127 -48 270 -66 380 -47 227 40 485 242 614 482 49 92 58 136
37 178 -21 39 -50 46 -132 31 -104 -20 -228 -8 -374 36 -206 62 -327 51 -523
-47 -43 -22 -82 -39 -87 -37 -4 2 -32 34 -63 72 l-55 69 32 44 c27 39 31 54
34 122 4 71 2 80 -21 106 l-25 29 -38 -33 c-41 -36 -91 -61 -124 -61 -18 0
-20 6 -20 53 0 102 44 231 106 314 33 43 97 86 164 109 82 28 239 26 350 -5
124 -35 154 -37 179 -12 12 12 21 33 21 47 0 35 -80 117 -174 179 -42 27 -76
53 -76 57 0 4 35 37 78 73 42 36 106 99 142 139 63 70 65 72 95 62 16 -6 31
-11 33 -12 2 -1 -11 -25 -28 -53 -16 -29 -30 -57 -30 -63 0 -23 145 153 223
271 81 123 169 242 175 236 7 -7 72 -174 72 -186 0 -4 13 -29 30 -55 16 -26
43 -81 61 -122 27 -66 29 -76 15 -84 -40 -22 -6 -89 118 -230 71 -80 135 -144
124 -123 -34 66 -102 173 -141 223 -46 58 -49 66 -43 103 6 35 -2 61 -54 186
-33 80 -59 147 -57 150 3 2 51 -51 108 -119 144 -171 254 -296 256 -294 2 1
-20 45 -47 96 -28 52 -50 97 -50 100 0 3 16 6 35 7 30 1 39 -4 63 -35 27 -36
136 -122 154 -122 5 0 8 11 6 24 -2 15 -44 67 -107 132 l-105 107 -49 -13
c-41 -10 -51 -10 -62 1 -23 25 -159 183 -219 254 -74 88 -94 105 -110 99 -14
-5 -62 -68 -206 -269 -51 -71 -96 -134 -100 -138 -4 -4 -28 -3 -55 3 -57 13
-62 9 -142 -97 -30 -40 -60 -73 -68 -73 -8 0 -34 -21 -57 -47 -24 -27 -57 -62
-75 -79 l-32 -32 -61 25 c-116 47 -232 65 -370 60 -267 -10 -453 -116 -623
-353 -32 -44 -67 -113 -137 -269 l-14 -30 -6 45 c-7 50 -22 83 -53 117 -30 33
-45 28 -59 -19 -13 -46 -95 -138 -122 -138 -8 0 -25 17 -37 37 -36 59 -157
187 -242 258 -148 122 -282 192 -464 241 -84 23 -118 27 -238 27 -147 0 -195
-8 -367 -60 l-87 -26 -71 58 c-39 32 -73 62 -76 66 -3 5 -17 9 -31 9 -19 0
-55 29 -143 115 l-117 114 -34 -10 c-19 -6 -42 -13 -52 -16 -10 -3 -44 0 -74
7 -41 10 -61 22 -79 44 -91 119 -171 230 -201 279 -35 58 -36 58 -76 55 l-41
-3 -126 168 c-69 92 -135 177 -147 188 -28 28 -46 18 -119 -73 -104 -129 -187
-223 -200 -226 -7 -2 -31 6 -53 17 -22 12 -46 21 -54 21 -15 0 -177 -163 -222
-223 -18 -24 -34 -36 -43 -32 -9 3 -40 -19 -81 -57 -36 -35 -94 -85 -128 -111
l-62 -47 -12 42 c-68 253 -143 600 -188 878 -77 469 -100 758 -104 1275 l-2
330 210 7 c264 8 471 26 510 44 17 8 46 13 65 13 71 -2 223 22 234 36 6 7 53
21 103 30 51 10 90 21 87 26 -3 5 -45 9 -94 9 -48 0 -90 4 -92 10 -2 6 -150
14 -368 20 -895 25 -851 24 -861 9 -12 -19 -11 -639 1 -879 12 -231 31 -431
66 -705 147 -1168 604 -2517 1182 -3490 36 -60 126 -201 199 -313 l133 -203
55 108 54 108 -56 85 c-391 589 -705 1252 -965 2035 -63 191 -128 413 -128
439 0 8 30 40 68 70 37 29 87 75 112 101 25 26 77 72 115 102 39 31 99 85 135
120 63 60 67 63 93 51 35 -17 34 -26 -6 -79 -19 -24 -42 -60 -52 -79 -18 -34
-18 -35 1 -20 10 8 41 34 68 58 27 23 51 41 53 38 10 -10 -56 -98 -136 -180
-83 -85 -88 -95 -28 -54 49 35 47 14 -8 -72 -30 -47 -55 -92 -55 -100 0 -9 -5
-21 -10 -26 -16 -16 -99 -158 -95 -162 7 -7 150 151 169 186 10 19 66 100 125
179 117 159 138 193 267 435 49 93 91 168 94 168 7 0 42 -61 155 -265 77 -139
258 -425 269 -425 3 0 -38 84 -90 188 -51 103 -94 188 -94 190 0 1 18 -16 39
-37 22 -22 50 -41 62 -43 16 -2 45 -35 96 -108 40 -58 100 -143 133 -190 92
-133 199 -261 270 -326 35 -32 58 -48 49 -34 -9 14 -35 57 -59 95 -24 39 -69
105 -99 149 l-54 78 50 -7 c37 -5 59 -2 80 9 l30 15 64 -65 c35 -35 71 -64 81
-64 9 0 34 -20 55 -45 22 -26 46 -45 58 -45 20 0 135 -75 135 -88 0 -4 -31
-25 -68 -46 -129 -75 -261 -190 -326 -285 -49 -71 -35 -141 28 -141 12 0 50
14 85 30 282 133 514 142 735 27 122 -63 239 -183 305 -314 l21 -42 -38 6
c-20 3 -77 25 -126 49 -48 24 -98 44 -110 44 -40 0 -66 -40 -66 -99 0 -69 28
-122 90 -168 41 -31 47 -39 39 -55 -9 -16 -17 -18 -62 -11 -170 26 -326 -12
-524 -128 -199 -117 -311 -155 -478 -166 -85 -5 -102 -9 -122 -29 -49 -49 -20
-131 83 -243 66 -71 153 -142 232 -188 35 -21 48 -24 65 -15 36 17 57 22 57
13 0 -4 -15 -13 -32 -18 l-33 -10 75 -36 c121 -57 187 -71 335 -71 120 0 194
11 271 41 14 5 13 -1 -7 -37 -31 -55 -128 -145 -174 -160 -19 -6 -35 -16 -35
-20 0 -19 46 -51 82 -56 40 -7 44 -14 28 -44 -8 -15 -16 -17 -33 -11 -105 39
-474 48 -652 17 -205 -37 -385 -102 -459 -167 -29 -26 -59 -67 -82 -114 -31
-63 -36 -81 -32 -120 5 -41 0 -57 -47 -148 -50 -97 -137 -303 -150 -357 -5
-20 0 -28 23 -42 l29 -17 33 97 c57 167 134 307 211 385 37 37 71 67 76 67 18
0 117 -66 131 -87 13 -21 12 -23 -13 -29 -19 -5 -30 -2 -39 11 -12 17 -15 17
-44 -5 -41 -31 -131 -157 -182 -255 -41 -81 -90 -220 -90 -256 0 -11 24 -56
54 -100 30 -43 64 -110 77 -147 30 -92 115 -281 137 -306 10 -12 31 -43 47
-71 16 -27 54 -75 85 -106 109 -110 307 -174 429 -139 27 8 39 6 60 -9 99 -70
651 -291 726 -291 8 0 36 -13 62 -29 27 -16 114 -62 194 -101 l146 -72 114 57
c140 70 339 186 479 278 111 73 153 102 292 204 l87 64 47 -16 c26 -9 67 -18
90 -22 51 -7 61 6 44 52 -14 37 -33 183 -25 195 3 5 28 -6 55 -24 58 -40 147
-73 161 -59 6 6 1 32 -11 68 -22 64 -28 155 -16 252 7 58 10 64 41 78 17 9 45
29 60 45 16 17 31 30 34 30 4 0 5 -44 3 -97 l-3 -98 71 70 c481 472 1071 1319
1420 2038 369 761 614 1517 809 2492 51 253 132 800 160 1085 40 386 62 820
64 1249 2 274 -1 341 -12 354 -7 10 -16 16 -20 16 -3 -1 -91 -14 -196 -30z
m-2248 -3614 c1 -6 -16 -11 -40 -12 -23 -1 -87 -16 -142 -33 -100 -32 -179
-45 -169 -28 15 24 159 81 245 97 44 8 99 -5 106 -24z m145 24 c51 -11 78 -24
78 -38 0 -13 -177 14 -201 31 l-24 17 47 0 c26 1 71 -4 100 -10z m-2182 -83
c0 -2 -17 -15 -38 -28 -23 -15 -60 -28 -96 -32 -32 -4 -79 -14 -104 -22 -26
-7 -48 -11 -51 -9 -9 10 43 55 77 66 20 6 69 15 111 19 42 4 82 8 89 9 6 0 12
-1 12 -3z m213 -22 c40 -9 76 -20 81 -24 5 -5 -8 -16 -28 -24 -33 -14 -45 -14
-107 -1 -92 20 -155 20 -163 0 -3 -8 -12 -15 -21 -15 -36 0 -2 39 55 64 45 20
94 20 183 0z m-542 -63 c-12 -16 -38 -35 -59 -42 -94 -30 -233 -116 -383 -238
-32 -27 -39 -30 -30 -13 38 72 248 227 388 287 99 43 110 43 84 6z m2089 19
c11 -7 3 -10 -28 -10 -23 0 -60 -9 -80 -19 -38 -19 -104 -84 -136 -133 -15
-23 -62 -46 -72 -35 -9 9 99 138 142 172 41 30 54 35 103 35 31 0 63 -5 71
-10z m-1305 -44 c64 -31 189 -115 182 -123 -2 -1 -23 -3 -48 -4 -37 -2 -53 4
-95 34 -55 39 -150 87 -174 87 -9 0 -33 -9 -55 -20 -47 -24 -62 -25 -44 -4 23
27 100 61 144 63 11 1 52 -14 90 -33z m1182 -48 c-19 -24 -40 -54 -46 -66 -15
-28 -26 -22 -16 8 8 26 73 100 87 100 5 0 -6 -19 -25 -42z m-861 -195 c41 -43
74 -81 74 -85 0 -11 -18 -10 -41 3 -20 10 -20 9 -5 -20 9 -16 16 -33 16 -36 0
-3 -43 38 -96 91 l-97 97 -55 -6 c-38 -4 -52 -3 -44 5 14 14 68 26 126 27 48
1 49 0 122 -76z m777 28 c-26 -26 -28 -27 -31 -8 -4 22 13 37 41 37 15 0 14
-5 -10 -29z m-373 -131 c0 -23 -7 -54 -15 -70 -12 -23 -13 -30 -3 -30 42 0
324 42 339 51 32 17 22 -7 -18 -41 -20 -18 -49 -37 -65 -42 l-30 -10 56 -32
c30 -17 74 -48 96 -68 23 -21 46 -38 51 -38 19 0 -3 45 -42 85 -21 23 -39 43
-39 46 0 11 118 -11 171 -31 79 -29 198 -102 243 -149 l39 -40 -53 20 c-29 11
-54 18 -56 16 -3 -2 26 -27 63 -54 80 -60 141 -123 206 -214 109 -154 127
-244 96 -494 -11 -88 -22 -166 -24 -172 -2 -7 0 -13 5 -13 19 0 42 -109 35
-169 -10 -88 -17 -91 -63 -32 -24 30 -39 58 -35 66 3 9 -1 15 -8 15 -7 0 -23
10 -36 22 l-23 21 40 34 c24 21 43 48 50 71 13 47 13 153 0 186 -11 30 -4 33
22 9 17 -15 18 -15 18 3 0 33 -39 85 -75 100 -58 24 -129 -6 -161 -68 -19 -36
-28 -31 -19 11 8 39 62 97 98 106 16 4 38 1 57 -8 36 -18 38 -15 8 13 -36 34
-93 25 -146 -24 l-24 -21 8 29 c5 20 3 27 -4 22 -31 -19 -54 -248 -32 -326 5
-19 82 -132 170 -250 194 -260 232 -331 238 -447 13 -246 -148 -399 -356 -338
-29 9 -52 19 -52 23 0 4 10 45 22 91 20 78 26 88 88 152 36 38 73 69 81 69 34
0 109 101 109 147 0 27 -28 63 -49 63 -9 0 -40 -11 -68 -24 -105 -51 -150 -61
-225 -48 -38 7 -91 12 -119 12 -38 0 -67 9 -119 36 -57 29 -72 33 -90 24 -26
-14 -41 -50 -33 -81 15 -58 93 -132 141 -131 44 0 178 -80 220 -131 16 -19 9
-78 -15 -139 -39 -97 -263 -115 -443 -35 -103 46 -242 167 -325 282 -38 53
-115 193 -115 209 0 10 46 7 75 -4 22 -8 26 -7 23 6 -10 54 -126 81 -196 45
-44 -22 -82 -80 -82 -123 l0 -22 16 22 c16 23 72 57 81 49 2 -3 11 -54 18
-113 30 -225 107 -454 200 -593 57 -86 160 -184 231 -219 47 -23 56 -32 65
-67 6 -22 18 -53 26 -68 8 -16 12 -31 9 -35 -5 -5 -76 13 -131 32 l-20 8 20
-17 c32 -27 112 -65 136 -65 13 0 45 -21 75 -50 63 -59 137 -96 211 -106 49
-6 53 -8 47 -28 -11 -34 -8 -178 4 -208 16 -38 0 -35 -49 9 -44 39 -65 75 -84
138 l-13 40 -12 -44 c-30 -110 -38 -231 -20 -306 5 -22 7 -42 4 -45 -3 -2 -39
13 -79 34 -146 74 -287 265 -334 448 -17 66 -20 70 -26 44 -4 -16 -5 -76 -1
-135 l6 -106 -35 60 c-51 88 -77 161 -83 238 -5 76 -22 101 -22 35 -1 -59 -13
-34 -39 82 -50 216 -66 271 -120 400 -59 143 -75 152 -43 26 11 -42 18 -76 16
-76 -9 0 -171 136 -232 194 -109 105 -184 232 -220 375 -24 94 -36 78 -36 -50
-1 -54 -4 -92 -8 -86 -27 41 -60 181 -65 272 -5 97 8 210 26 228 5 5 20 -3 34
-17 33 -33 57 -33 91 0 43 43 32 115 -21 135 -31 12 -68 -9 -85 -47 -7 -16
-17 -23 -26 -19 -8 3 -26 -2 -39 -11 -14 -8 -26 -14 -28 -12 -1 2 6 44 16 93
11 50 17 101 15 115 -3 17 5 40 25 70 101 150 98 432 -6 536 -25 25 -25 27 -9
45 9 10 23 19 29 19 23 0 63 -40 94 -95 17 -30 33 -55 35 -55 1 0 0 19 -4 43
-8 54 -42 119 -76 146 -37 29 -26 54 17 39 50 -17 126 13 200 80 33 30 57 57
55 60 -3 3 -40 -16 -82 -42 -42 -26 -90 -50 -107 -53 l-30 -6 24 43 c58 105
200 227 323 277 70 29 208 42 269 25 41 -12 45 -7 21 26 -9 13 -14 24 -13 26
80 56 110 82 121 106 18 41 28 37 28 -10z m910 -258 c0 -22 -69 -57 -84 -42
-7 7 -5 10 5 10 7 0 28 11 44 25 36 29 35 29 35 7z m-1974 -108 c70 -39 81
-51 66 -66 -8 -8 -19 -5 -39 8 -15 10 -46 27 -68 37 -37 17 -55 33 -55 50 0
16 35 5 96 -29z m2669 -198 c143 -52 274 -64 433 -40 38 6 42 5 42 -14 0 -78
-208 -344 -292 -374 -16 -6 -28 -15 -28 -22 0 -20 -104 -76 -201 -107 -86 -28
-103 -30 -194 -26 -170 8 -301 72 -221 109 19 8 40 7 90 -6 107 -26 219 -21
332 15 101 33 172 79 271 172 50 47 129 154 121 162 -2 2 -32 -4 -65 -15 -95
-29 -198 -36 -265 -16 -70 20 -149 20 -216 1 -58 -18 -180 -96 -231 -149 -19
-20 -38 -36 -42 -36 -3 0 -9 32 -13 72 -3 39 -17 97 -30 130 l-24 58 62 34
c175 98 305 112 471 52z m-2730 -101 c94 -20 175 -62 198 -102 38 -67 41 -227
7 -318 l-10 -26 -53 44 c-28 24 -68 53 -87 64 -200 117 -312 136 -489 83 -73
-21 -97 -38 -39 -26 50 10 22 -9 -53 -38 -102 -38 -230 -59 -336 -54 -51 2
-93 1 -93 -3 0 -15 165 -139 229 -173 96 -49 208 -78 329 -83 95 -4 111 -1
203 28 54 17 137 53 184 80 47 27 90 49 96 49 6 0 24 -9 40 -21 37 -26 33 -32
-69 -97 -152 -96 -280 -135 -442 -135 -97 0 -184 15 -260 43 -14 5 -38 14 -55
21 l-30 11 35 16 35 16 -65 5 c-77 7 -137 38 -233 121 -83 71 -139 146 -135
179 3 25 6 26 93 32 167 12 254 45 567 213 156 83 278 104 433 71z m2045 -375
c26 -26 25 -43 -4 -77 -20 -23 -28 -26 -43 -17 -24 15 -28 59 -8 90 19 29 29
30 55 4z m-1677 -403 c4 -10 -3 -12 -24 -9 -16 2 -29 8 -29 13 0 14 47 10 53
-4z m-443 -132 c-21 -26 -68 -56 -100 -65 -41 -12 -38 6 3 19 18 6 49 24 68
40 35 30 52 33 29 6z m-47 -177 c-19 -46 -27 -87 -31 -153 -3 -58 -8 -83 -13
-70 -22 58 6 221 47 266 9 10 18 19 20 19 1 0 -9 -28 -23 -62z m257 13 c0 -61
36 -183 79 -269 81 -161 243 -431 292 -486 7 -8 -12 67 -36 143 -3 12 -4 21
-2 21 3 0 33 -38 67 -85 66 -92 136 -222 159 -295 8 -25 19 -49 24 -55 12 -13
0 100 -14 126 -5 11 -6 19 -1 19 21 0 55 -106 60 -184 4 -70 6 -77 18 -61 8
10 14 31 14 47 0 15 5 28 11 28 8 0 10 -21 7 -65 l-4 -64 26 40 27 39 27 -92
c16 -50 30 -97 32 -103 3 -6 -11 -29 -29 -50 l-34 -39 -6 58 c-8 78 -22 91
-37 35 -12 -45 -57 -139 -83 -173 -14 -19 -16 -18 -37 25 -28 54 -66 112 -138
206 -29 40 -71 105 -93 145 l-38 73 0 -45 c0 -25 6 -63 14 -85 8 -21 13 -41
11 -42 -7 -8 -170 147 -207 197 -86 116 -162 309 -163 416 -1 101 -33 51 -45
-71 l-7 -70 -16 30 c-60 111 -77 264 -44 395 8 36 16 69 16 73 0 17 -21 -6
-62 -66 -31 -45 -43 -57 -46 -44 -4 18 65 134 112 192 28 33 27 34 45 -59 17
-92 27 -87 34 16 9 145 67 300 67 179z m1920 -28 c0 -5 -21 -20 -48 -35 -26
-15 -57 -36 -70 -48 -13 -12 -26 -20 -29 -17 -8 9 48 57 97 83 52 27 50 26 50
17z m-322 -34 c52 -11 122 -45 122 -59 0 -14 -5 -13 -41 9 -18 11 -61 27 -95
37 -35 9 -64 21 -64 27 0 5 8 6 17 3 9 -4 36 -11 61 -17z m-2271 -5 c42 -5 54
-11 59 -28 4 -11 7 -22 8 -23 1 -2 -49 -5 -111 -7 -135 -6 -280 -29 -388 -63
-44 -14 -82 -27 -84 -29 -2 -2 28 -37 67 -79 67 -70 94 -117 77 -133 -4 -4
-19 9 -34 28 -83 110 -206 200 -275 200 l-31 1 25 14 c122 70 519 139 687 119z
m-595 -326 c-9 -9 -15 -9 -24 1 -11 10 -10 11 5 6 10 -5 17 -2 17 6 0 7 3 9 7
6 4 -4 1 -13 -5 -19z m1007 -150 c95 -291 344 -597 619 -762 62 -38 84 -64 37
-46 -90 34 -201 112 -323 225 -129 120 -257 303 -329 469 -33 78 -73 212 -73
245 1 36 37 -34 69 -131z m-669 50 c-14 -6 -37 -17 -52 -24 -18 -8 -30 -9 -34
-3 -3 6 -4 12 -3 13 11 9 67 24 89 25 l25 0 -25 -11z m-395 -78 c-3 -6 1 -7 9
-4 25 10 18 -10 -14 -41 -23 -22 -30 -25 -30 -12 0 22 21 67 32 67 5 0 6 -4 3
-10z m474 -4 c10 -12 8 -17 -9 -26 -29 -15 -49 2 -30 25 16 19 24 19 39 1z
m467 -217 c8 -17 13 -33 10 -36 -11 -11 -79 148 -83 195 -4 43 -2 39 26 -41
17 -48 38 -102 47 -118z m1373 126 c35 -36 69 -65 76 -65 18 0 64 -56 86 -105
10 -22 16 -41 14 -43 -9 -10 -77 38 -130 92 -56 57 -137 186 -117 186 5 0 37
-29 71 -65z m865 57 c3 -5 -11 -37 -31 -71 -37 -61 -37 -61 -57 -42 -20 20
-20 20 4 71 20 42 28 50 51 50 15 0 30 -4 33 -8z m-3380 -199 c-9 -21 -18 -44
-21 -50 -5 -12 -23 -18 -23 -8 0 2 10 25 22 50 26 54 45 61 22 8z m881 23 c16
-12 17 -16 6 -30 -17 -20 -25 -20 -46 0 -12 12 -13 19 -4 30 14 17 20 17 44 0z
m246 -93 c138 -205 237 -328 353 -441 100 -97 146 -155 133 -168 -6 -6 -100
62 -167 120 -50 44 -70 56 -87 51 -21 -5 -23 -2 -23 39 0 39 -7 53 -47 103
-26 32 -57 66 -70 76 -13 10 -23 25 -23 33 0 14 -15 41 -95 164 -64 99 -79
130 -61 130 8 0 47 -48 87 -107z m1693 -3 c13 -25 35 -77 50 -116 30 -80 76
-140 130 -169 40 -22 48 -40 14 -30 -48 15 -109 58 -133 93 -14 21 -42 89 -63
152 -21 63 -42 124 -46 135 l-8 20 17 -20 c9 -11 27 -40 39 -65z m-2077 25
c30 -13 81 -50 114 -82 166 -158 253 -358 266 -614 6 -120 -9 -225 -43 -294
-12 -25 -13 -26 -8 -5 13 54 16 292 4 372 -24 169 -104 358 -197 470 -55 66
-136 130 -208 165 -46 22 -47 23 -16 18 19 -3 59 -16 88 -30z m663 -149 c17
-32 7 -56 -24 -56 -29 0 -42 30 -26 60 14 27 34 25 50 -4z m-624 -151 c4 -8 9
-13 13 -10 14 8 70 -60 86 -105 33 -93 28 -237 -10 -309 l-12 -25 -7 22 c-4
12 -3 37 3 55 17 53 25 154 12 141 -6 -6 -14 -41 -18 -78 -3 -36 -9 -68 -12
-70 -3 -2 -7 38 -8 89 -2 102 -22 204 -52 265 -11 22 -15 40 -10 40 5 0 12 -7
15 -15z m-206 -10 c7 -9 33 -20 58 -27 36 -9 47 -17 59 -45 19 -48 14 -127 -9
-131 -12 -2 -18 3 -19 15 0 14 -3 12 -11 -7 -9 -23 -11 -21 -27 35 -19 64 -54
140 -71 150 -12 8 -13 25 -1 25 5 0 14 -7 21 -15z m1060 -94 c0 -6 -4 -13 -10
-16 -5 -3 -10 1 -10 9 0 9 5 16 10 16 6 0 10 -4 10 -9z m-1290 -35 c0 -2 -7
-17 -15 -32 -18 -34 -20 -116 -4 -147 6 -12 23 -34 37 -49 28 -31 19 -37 -16
-12 -34 23 -62 87 -62 139 0 52 23 105 45 105 8 0 15 -2 15 -4z m1410 -61 c0
-8 -4 -15 -10 -15 -5 0 -10 7 -10 15 0 8 5 15 10 15 6 0 10 -7 10 -15z m-390
-66 c19 -3 25 -10 25 -28 0 -13 -8 -29 -17 -34 -22 -14 -58 16 -58 48 0 25 11
40 19 26 3 -5 17 -11 31 -12z m560 -183 l105 -35 7 -48 c4 -26 3 -82 -1 -123
-5 -41 -6 -77 -4 -80 10 -11 266 137 384 222 l75 54 57 -51 c67 -60 75 -45
-78 -152 -133 -94 -257 -169 -444 -269 l-154 -83 -99 50 c-78 39 -98 53 -94
67 41 136 45 356 10 530 l-7 32 69 -39 c38 -22 116 -56 174 -75z m-380 48 c0
-16 -16 -19 -25 -4 -8 13 4 32 16 25 5 -4 9 -13 9 -21z m645 -95 c-49 -23 -95
-25 -95 -4 0 10 16 15 58 18 31 2 62 4 67 4 6 1 -8 -7 -30 -18z m-910 -183 c8
-13 13 -31 9 -40 -8 -22 -41 -39 -49 -26 -3 5 -1 10 5 10 7 0 10 6 8 12 -3 7
-13 13 -23 13 -25 0 -29 19 -10 39 23 22 42 20 60 -8z m153 -133 c4 -26 3 -27
-32 -13 -18 6 -24 14 -20 25 10 24 48 14 52 -12z m73 7 c22 -13 25 -45 4 -53
-7 -3 -24 2 -37 12 -19 16 -20 21 -9 35 16 19 17 19 42 6z"/>
<path d="M5954 3899 c30 -35 52 -74 78 -134 l17 -40 0 57 c1 47 -3 62 -25 88
-23 27 -72 60 -89 60 -4 0 5 -14 19 -31z"/>
<path d="M6530 3523 c-64 -24 -118 -103 -130 -190 -12 -89 2 -96 41 -23 48 90
107 153 144 153 17 0 38 -3 49 -8 18 -8 18 -7 1 19 -10 15 -31 34 -46 42 -30
15 -35 16 -59 7z"/>
<path d="M5303 3485 c-33 -14 -133 -101 -133 -116 0 -4 24 3 54 17 144 66 280
28 429 -121 62 -63 69 -58 37 28 -25 66 -100 145 -173 182 -59 29 -160 34
-214 10z"/>
<path d="M5285 3122 c-33 -20 -60 -50 -53 -57 2 -2 22 8 44 22 21 15 55 33 74
40 l35 12 -35 1 c-19 0 -48 -8 -65 -18z"/>
<path d="M5100 3043 c0 -23 32 -61 74 -89 l28 -18 -22 -18 c-34 -27 -19 -31
46 -12 90 26 185 23 269 -11 39 -15 74 -31 78 -35 4 -4 -16 -10 -46 -14 -68
-8 -174 -54 -207 -91 -22 -25 -22 -27 -5 -21 155 60 263 80 380 71 44 -3 90
-8 103 -11 12 -2 22 -1 22 4 0 14 -50 33 -70 27 -13 -4 -27 11 -59 64 -23 38
-64 94 -91 123 l-50 53 40 -61 c22 -34 40 -65 40 -68 0 -4 -15 4 -33 18 -103
79 -263 109 -351 67 -43 -21 -46 -21 -78 -5 -18 9 -41 23 -50 32 -16 14 -18
13 -18 -5z"/>
<path d="M4930 2970 c-11 -20 -5 -60 8 -60 4 0 8 18 9 40 1 45 -2 49 -17 20z"/>
<path d="M6282 2963 c-8 -3 12 -16 45 -29 69 -28 69 -28 52 -7 -12 13 -72 45
-81 42 -2 0 -9 -3 -16 -6z"/>
<path d="M6178 2953 c6 -2 18 -2 25 0 6 3 1 5 -13 5 -14 0 -19 -2 -12 -5z"/>
<path d="M6430 2623 c0 -5 12 -9 27 -10 19 -1 22 1 12 8 -17 11 -39 12 -39 2z"/>
<path d="M5965 861 c33 -94 103 -196 121 -178 5 5 -28 61 -68 114 -16 19 -28
43 -28 53 0 9 -9 25 -20 35 -20 18 -20 18 -5 -24z"/>
<path d="M7305 3530 c44 -11 67 -11 60 0 -3 6 -25 9 -48 9 -40 -1 -40 -2 -12
-9z"/>
<path d="M4003 3308 c-13 -6 -23 -15 -23 -20 0 -5 12 -2 28 5 15 8 34 17 42
20 11 4 9 5 -5 6 -11 0 -30 -5 -42 -11z"/>
<path d="M3970 1230 c0 -5 5 -10 11 -10 5 0 7 5 4 10 -3 6 -8 10 -11 10 -2 0
-4 -4 -4 -10z"/>
<path d="M4956 681 c-36 -40 21 -83 58 -45 18 17 19 24 10 48 -8 22 -47 20
-68 -3z m49 -11 c-3 -5 -10 -10 -16 -10 -5 0 -9 5 -9 10 0 6 7 10 16 10 8 0
12 -4 9 -10z"/>
<path d="M4935 488 c-9 -23 0 -48 18 -48 8 0 20 7 27 15 10 13 9 15 -8 15 -11
0 -22 8 -25 18 -4 16 -4 16 -12 0z"/>
<path d="M7708 7695 c-3 -3 -61 -12 -129 -20 -68 -8 -170 -23 -227 -33 -98
-18 -103 -18 -118 0 -9 9 -24 20 -34 23 -29 9 -109 -31 -128 -65 -13 -23 -30
-33 -72 -45 -30 -9 -62 -20 -70 -25 -20 -13 -30 -17 -64 -25 -23 -5 -27 -10
-23 -31 4 -20 -1 -25 -27 -32 -40 -11 -49 -42 -12 -42 23 0 25 -2 14 -20 -7
-10 -9 -22 -5 -26 8 -9 58 -16 110 -16 32 0 38 -3 34 -16 -111 -350 -113 -354
-150 -373 -47 -25 -97 -89 -97 -126 0 -30 26 -63 48 -63 17 0 15 -16 -14 -125
-14 -53 -23 -103 -20 -112 9 -23 -23 -134 -50 -174 -27 -39 -29 -56 -13 -112
20 -72 110 -100 167 -52 17 14 34 25 38 25 5 0 57 20 116 44 59 25 158 61 220
81 62 20 118 40 123 45 6 4 71 22 145 40 74 18 142 39 150 46 8 7 44 18 80 24
66 12 170 43 193 57 7 5 -10 10 -43 13 l-55 6 77 13 c78 14 106 30 93 52 -5 8
-34 10 -91 7 -46 -2 -81 -1 -78 4 3 4 12 8 20 8 8 0 14 5 14 10 0 15 -153 12
-255 -6 -171 -29 -361 -83 -589 -165 -60 -22 -111 -38 -113 -35 -3 3 2 26 11
52 9 26 14 49 12 52 -3 2 -10 -14 -17 -37 -7 -23 -16 -41 -21 -41 -12 0 -11 7
24 104 23 64 34 84 38 70 6 -15 12 -8 33 36 14 30 31 74 37 96 12 40 15 43
104 79 50 20 122 46 161 56 38 11 72 24 75 29 13 20 160 66 160 50 0 -9 104
16 133 31 28 16 10 28 -31 22 -65 -10 -22 12 63 32 44 10 86 23 92 28 21 16 4
27 -40 27 -38 0 -39 1 -21 15 18 14 18 14 -11 14 -16 0 -68 -6 -115 -13 -57
-9 -87 -10 -92 -3 -7 12 -199 -31 -311 -69 -84 -29 -81 -28 -72 -6 4 9 11 39
16 67 5 27 15 55 24 61 22 16 44 75 39 104 -8 41 28 86 73 94 21 4 63 16 93
26 79 26 297 73 308 66 8 -5 297 45 342 59 36 11 21 25 -27 25 -71 0 -35 17
54 25 52 5 76 11 80 22 9 23 -16 33 -85 33 -54 0 -62 2 -60 18 3 15 -9 17
-113 20 -63 1 -118 0 -121 -3z"/>
<path d="M5609 7685 c-3 -2 -33 -7 -66 -10 -74 -6 -275 -47 -384 -77 -67 -18
-83 -19 -103 -9 -34 19 -85 4 -121 -34 -18 -20 -58 -42 -102 -59 -47 -18 -74
-34 -78 -47 -4 -11 -15 -19 -29 -19 -26 0 -46 -17 -46 -41 0 -11 -13 -22 -35
-29 -43 -14 -45 -30 -5 -30 24 0 30 -4 28 -17 -3 -15 8 -19 62 -24 36 -4 77
-5 93 -2 15 3 27 4 27 2 0 -2 -20 -80 -45 -173 -42 -161 -58 -195 -91 -196
-12 0 -53 -44 -77 -82 -15 -24 -15 -29 0 -59 9 -17 29 -37 44 -43 16 -6 29
-16 29 -23 0 -40 -73 -355 -91 -391 -21 -43 -21 -43 -2 -90 15 -36 28 -51 58
-65 47 -23 62 -20 195 32 152 61 371 140 555 201 88 29 174 61 190 70 17 10
42 20 57 24 14 3 47 26 73 51 54 53 57 83 10 98 -16 6 -33 15 -37 20 -7 12
-126 -5 -226 -33 -36 -10 -70 -16 -74 -14 -12 8 -274 -79 -465 -154 -56 -22
-103 -38 -105 -36 -7 6 19 136 36 184 9 25 24 78 34 119 l18 75 105 44 c134
57 223 91 279 108 81 24 186 61 211 75 24 14 24 14 -16 19 l-40 5 73 23 c39
12 72 28 72 35 0 7 -10 21 -22 31 -21 18 -26 18 -112 3 -50 -8 -100 -15 -111
-15 -26 1 -131 -25 -270 -68 -60 -18 -110 -32 -112 -31 -1 2 5 29 13 61 9 33
16 73 16 90 0 17 4 36 8 41 4 6 16 38 25 73 l18 62 111 34 c180 55 225 67 285
72 31 3 79 12 106 19 28 8 70 17 95 21 51 8 112 43 135 78 35 54 -33 106 -139
106 -29 0 -55 -2 -57 -5z"/>
<path d="M3624 7347 c-36 -13 -148 -131 -270 -282 -91 -113 -214 -287 -214
-304 0 -6 -13 -20 -30 -32 -16 -12 -48 -52 -72 -88 -23 -36 -63 -95 -87 -130
l-45 -65 -12 60 c-7 32 -24 151 -38 264 -15 113 -32 227 -37 253 -6 26 -8 67
-5 90 5 33 1 51 -17 81 -12 22 -29 42 -37 46 -8 4 -29 15 -47 24 -42 22 -63
20 -122 -10 -52 -26 -81 -63 -81 -105 0 -12 -25 -86 -55 -165 -31 -79 -60
-163 -65 -186 -15 -73 -32 -131 -50 -178 -33 -84 -79 -241 -74 -254 3 -7 -13
-66 -34 -132 -22 -65 -68 -226 -102 -357 -55 -207 -62 -240 -51 -261 8 -14 10
-36 6 -54 -8 -38 11 -53 25 -18 5 14 20 42 33 63 13 21 36 80 51 132 29 102
52 152 41 91 -11 -66 14 -16 45 92 16 58 37 123 46 143 27 64 27 30 0 -55 -14
-44 -26 -88 -26 -97 0 -27 28 4 41 45 6 20 18 48 26 61 15 23 143 395 143 414
0 5 -7 4 -15 -3 -25 -21 -19 10 11 53 24 36 77 158 103 240 7 20 16 35 20 32
5 -2 11 -32 15 -66 9 -88 54 -301 82 -389 13 -41 24 -86 24 -100 0 -37 26 -68
76 -92 40 -18 49 -19 90 -8 41 12 84 49 84 72 0 13 167 286 258 423 70 105 72
108 31 70 -40 -38 -41 -38 -23 -9 10 17 34 48 53 70 26 31 32 34 28 17 -7 -31
-4 -29 25 15 32 48 138 172 147 172 4 0 -1 -57 -10 -127 -26 -188 -42 -405
-38 -510 4 -85 6 -95 31 -120 37 -36 83 -35 146 6 27 17 54 31 60 31 6 0 19
12 29 28 10 15 33 43 51 63 74 80 87 136 20 86 -18 -13 -50 -27 -70 -30 l-38
-6 0 62 c0 103 70 676 91 743 20 66 2 124 -53 166 -44 34 -74 40 -114 25z"/>
<path d="M6187 7120 c-50 -40 -55 -119 -10 -165 36 -35 113 -36 148 -1 33 33
41 85 20 129 -27 58 -108 76 -158 37z"/>
<path d="M4144 6830 c-64 -26 -84 -115 -38 -169 46 -55 122 -50 167 11 63 86
-29 199 -129 158z"/>
<path d="M3294 5967 c-2 -7 -3 -67 -2 -133 3 -111 4 -119 23 -119 18 0 20 8
25 85 l5 85 35 -57 c19 -32 41 -58 48 -58 7 0 27 23 45 52 l32 52 5 -80 c5
-73 7 -79 28 -82 l23 -3 -3 133 c-3 124 -4 133 -22 133 -13 0 -33 -22 -60 -67
-23 -37 -44 -68 -48 -68 -4 0 -26 32 -49 70 -28 48 -47 70 -60 70 -11 0 -22
-6 -25 -13z"/>
<path d="M3758 5903 c-3 -43 -3 -103 1 -133 l6 -55 84 -3 c49 -2 88 1 95 8 19
19 -11 33 -76 34 l-63 1 0 35 0 35 58 3 c49 3 58 6 55 20 -2 13 -16 18 -61 20
l-58 3 3 32 3 32 68 3 c59 3 67 5 67 22 0 18 -7 20 -89 20 l-88 0 -5 -77z"/>
<path d="M4184 5961 c-49 -30 -64 -59 -64 -119 0 -50 3 -58 39 -93 34 -34 45
-39 84 -39 55 0 95 14 104 36 10 27 -12 37 -45 20 -43 -22 -66 -20 -101 10
-26 21 -31 33 -31 69 0 36 5 48 31 69 34 29 48 31 96 14 26 -9 36 -9 45 0 21
21 -15 45 -74 49 -40 3 -60 -1 -84 -16z"/>
<path d="M4617 5973 c-20 -33 -106 -247 -101 -254 11 -18 34 -8 49 21 15 28
19 30 75 30 49 0 60 -3 65 -19 8 -26 32 -44 49 -38 23 9 -83 261 -111 265 -12
2 -23 0 -26 -5z m44 -108 l17 -45 -40 0 c-34 0 -39 3 -33 18 4 9 12 29 17 45
5 15 13 27 17 27 3 0 13 -20 22 -45z"/>
<path d="M4897 5973 c-18 -17 -4 -32 31 -35 l37 -3 5 -110 c4 -93 8 -110 22
-113 24 -5 32 34 25 127 -2 42 -3 82 0 89 3 6 20 12 39 12 27 0 34 4 34 20 0
19 -7 20 -93 20 -52 0 -97 -3 -100 -7z"/>
<path d="M5277 5973 c-4 -3 -7 -64 -7 -135 0 -118 2 -129 18 -126 12 2 18 16
22 48 4 39 8 45 30 48 20 2 31 -7 55 -43 30 -45 60 -64 76 -48 5 5 -4 27 -21
53 l-29 44 25 22 c40 38 32 104 -17 129 -28 15 -140 21 -152 8z m124 -43 c22
-12 25 -52 5 -69 -8 -7 -32 -11 -53 -9 -36 3 -38 5 -39 38 0 19 1 38 3 43 6
11 61 9 84 -3z"/>
<path d="M5702 5960 c-35 -21 -62 -72 -62 -115 0 -76 61 -135 138 -135 59 0
98 23 123 72 37 72 11 156 -56 184 -48 20 -104 17 -143 -6z m124 -35 c28 -19
48 -69 40 -101 -10 -37 -53 -74 -88 -74 -44 0 -88 48 -88 95 0 71 81 119 136
80z"/>
<path d="M6094 5967 c-2 -7 -3 -67 -2 -133 3 -111 4 -119 23 -119 18 0 20 8
23 83 2 45 6 82 10 82 4 0 36 -38 71 -85 88 -120 96 -116 96 50 0 116 -2 130
-17 133 -16 3 -18 -6 -18 -82 0 -47 -4 -86 -8 -86 -5 0 -37 38 -73 85 -61 81
-93 103 -105 72z"/>
<path d="M6522 5848 c3 -118 5 -133 21 -136 16 -3 17 6 15 130 -3 118 -5 133
-21 136 -16 3 -17 -6 -15 -130z"/>
<path d="M6804 5961 c-31 -19 -64 -82 -64 -122 0 -36 32 -90 64 -110 38 -23
106 -25 146 -4 33 17 37 27 16 44 -10 8 -21 7 -45 -5 -94 -47 -177 72 -102
147 33 32 75 38 106 15 14 -10 25 -11 37 -5 26 14 22 26 -12 44 -40 21 -108
19 -146 -4z"/>
<path d="M7221 5943 c-26 -52 -91 -211 -91 -223 0 -6 9 -10 21 -10 14 0 24 10
32 30 11 29 14 30 73 30 59 0 62 -1 74 -30 13 -32 50 -42 50 -14 0 8 -24 69
-52 135 -59 133 -74 145 -107 82z m53 -67 c3 -13 9 -31 12 -40 5 -13 -1 -16
-30 -16 -20 0 -36 2 -36 5 0 11 34 75 41 75 4 0 10 -11 13 -24z"/>
<path d="M7931 5872 c-19 -75 -43 -107 -96 -128 l-47 -18 50 -22 c56 -25 74
-50 96 -136 l13 -52 7 39 c14 75 46 125 93 148 23 11 43 24 43 27 0 4 -18 12
-40 19 -46 14 -65 38 -89 116 l-17 55 -13 -48z"/>
<path d="M3494 5527 c-3 -8 -3 -56 -2 -108 2 -76 6 -94 18 -94 10 0 16 12 18
38 3 36 5 37 41 37 71 0 104 67 56 115 -19 20 -34 25 -75 25 -33 0 -52 -5 -56
-13z m97 -27 c39 -21 16 -70 -33 -70 -26 0 -28 3 -28 40 0 34 3 40 21 40 11 0
29 -5 40 -10z"/>
<path d="M3820 5516 c-5 -14 -23 -57 -40 -97 -16 -39 -30 -75 -30 -80 0 -17
29 -9 40 11 17 31 88 28 115 -5 11 -14 25 -22 31 -17 15 10 -69 206 -90 210
-10 2 -20 -7 -26 -22z m47 -78 c13 -30 9 -38 -23 -38 -31 0 -34 9 -17 49 15
35 22 34 40 -11z"/>
<path d="M4082 5433 c2 -64 7 -108 13 -108 6 0 11 17 13 38 3 32 7 37 28 37
13 0 24 -3 24 -8 0 -4 14 -23 31 -41 21 -24 33 -31 41 -23 7 7 4 20 -11 41
l-22 31 20 26 c26 34 26 54 0 88 -18 23 -28 26 -80 26 l-60 0 3 -107z m111 60
c15 -9 6 -43 -14 -53 -31 -17 -63 -9 -67 18 -6 42 5 54 40 47 18 -4 36 -9 41
-12z"/>
<path d="M4410 5440 c-30 -70 -40 -104 -32 -112 7 -7 15 -2 27 16 14 21 25 26
58 26 33 0 46 -6 63 -27 19 -24 23 -26 29 -11 9 22 -68 202 -88 206 -10 2 -28
-28 -57 -98z m77 -2 c13 -30 9 -38 -24 -38 -25 0 -29 14 -13 56 11 29 19 25
37 -18z"/>
<path d="M4877 5533 c-11 -10 -8 -201 3 -208 5 -3 39 -3 75 1 79 8 83 28 7 32
-50 3 -52 4 -52 33 0 28 2 29 46 29 59 0 55 24 -4 28 -39 3 -42 5 -42 32 0 23
3 27 20 23 32 -8 90 6 90 22 0 12 -15 15 -68 15 -38 0 -72 -3 -75 -7z"/>
<path d="M5176 5521 c-10 -11 -16 -31 -14 -48 2 -22 12 -32 45 -48 62 -30 71
-41 50 -62 -15 -15 -21 -15 -53 -4 -42 15 -65 3 -38 -20 22 -18 96 -18 117 0
20 16 23 74 5 88 -7 6 -30 16 -50 22 -46 15 -55 28 -35 49 13 13 21 13 42 4
29 -13 45 -9 45 13 0 30 -88 35 -114 6z"/>
<path d="M5477 5519 c-95 -74 -20 -224 95 -190 41 13 55 28 41 42 -6 6 -20 4
-37 -5 -33 -17 -81 -5 -96 24 -36 67 27 139 94 109 21 -10 29 -10 39 0 9 10 8
15 -7 27 -29 21 -98 18 -129 -7z"/>
<path d="M5760 5452 c0 -107 14 -127 87 -127 67 0 83 25 83 131 0 68 -3 84
-15 84 -12 0 -15 -15 -15 -73 0 -77 -10 -100 -47 -112 -15 -4 -28 0 -42 14
-18 18 -21 34 -21 96 0 60 -3 75 -15 75 -12 0 -15 -16 -15 -88z"/>
<path d="M6104 5506 c-46 -46 -48 -101 -5 -148 26 -29 36 -33 79 -33 55 0 89
19 72 40 -9 11 -16 11 -38 -1 -36 -18 -45 -18 -76 7 -20 16 -26 29 -26 58 0
56 46 90 97 70 14 -5 34 -7 42 -4 28 11 -25 45 -71 45 -32 0 -47 -7 -74 -34z"/>
<path d="M6402 5433 c3 -111 19 -146 28 -63 l5 45 50 0 50 0 5 -45 c9 -83 25
-48 28 63 2 89 0 107 -12 107 -10 0 -16 -13 -18 -42 l-3 -43 -52 -3 -52 -3 -3
42 c-2 23 -9 44 -16 47 -10 3 -12 -20 -10 -105z"/>
<path d="M6781 5518 c-5 -13 -25 -60 -44 -105 -20 -44 -33 -84 -30 -87 12 -12
24 -5 35 19 10 22 18 25 59 25 38 0 51 -4 59 -20 11 -20 40 -28 40 -11 0 8
-45 120 -70 174 -16 33 -37 35 -49 5z m49 -105 c0 -14 -46 -18 -53 -5 -2 4 3
23 11 42 l15 35 13 -30 c7 -16 13 -36 14 -42z"/>
<path d="M7040 5435 c0 -87 3 -105 15 -105 10 0 15 11 15 35 0 30 3 35 24 35
17 0 31 -11 46 -35 13 -20 30 -35 41 -35 25 0 24 9 -6 44 l-24 30 25 22 c29
28 30 53 3 88 -18 23 -28 26 -80 26 l-59 0 0 -105z m94 65 c16 -6 26 -17 26
-29 0 -24 -6 -28 -50 -33 -30 -3 -35 0 -38 20 -7 49 11 62 62 42z"/>
<path d="M5837 5204 c-4 -4 -7 -12 -7 -19 0 -16 92 -14 97 3 3 7 -4 12 -19 12
-12 0 -32 3 -43 6 -11 3 -24 2 -28 -2z"/>
<path d="M4080 5128 c0 -7 16 -38 35 -68 26 -40 35 -65 35 -97 0 -32 4 -43 15
-43 11 0 15 11 15 43 0 32 9 56 40 102 46 69 47 75 20 75 -12 0 -28 -15 -42
-40 -13 -22 -26 -40 -30 -40 -4 0 -19 18 -33 40 -24 38 -55 54 -55 28z"/>
<path d="M4574 5127 c-3 -8 -3 -56 -2 -108 l3 -94 75 0 c60 0 75 3 75 15 0 11
-14 16 -58 18 -57 3 -58 4 -55 30 3 24 7 27 38 24 19 -1 41 2 49 7 24 15 2 31
-45 31 -42 0 -44 1 -44 30 0 30 1 30 55 30 42 0 55 3 55 15 0 20 -138 22 -146
2z"/>
<path d="M4872 5033 c2 -88 6 -108 18 -108 12 0 15 14 15 68 0 37 3 67 6 67 4
0 30 -32 58 -71 29 -39 57 -69 64 -66 8 2 13 38 15 111 2 99 1 107 -15 104
-15 -3 -19 -16 -23 -72 l-5 -69 -49 72 c-31 45 -56 71 -68 71 -17 0 -18 -8
-16 -107z"/>
<path d="M5217 5122 c-38 -42 -13 -91 56 -108 35 -8 46 -33 23 -49 -17 -13
-51 -10 -72 7 -18 13 -38 -16 -21 -31 42 -34 132 -19 143 25 10 40 -4 61 -57
83 -38 15 -50 25 -47 38 3 15 13 18 51 16 26 -2 47 1 47 5 0 35 -95 45 -123
14z"/>
<path d="M5494 5127 c-3 -8 -3 -56 -2 -108 l3 -94 75 0 c60 0 75 3 75 15 0 11
-14 16 -58 18 -57 3 -58 4 -55 30 3 25 7 27 51 30 63 4 58 26 -7 30 -45 3 -47
5 -44 30 3 25 7 27 56 30 37 2 52 7 52 18 0 19 -138 21 -146 1z"/>
<path d="M5790 5036 c0 -64 4 -107 11 -111 18 -12 24 4 24 71 0 35 2 64 6 64
3 0 29 -32 59 -70 29 -39 58 -69 64 -67 7 2 12 44 14 111 2 99 1 107 -15 104
-15 -3 -19 -16 -23 -70 l-5 -66 -50 69 c-28 39 -58 69 -67 69 -16 0 -18 -12
-18 -104z"/>
<path d="M6180 5118 c-76 -183 -80 -198 -60 -198 5 0 17 11 26 25 14 21 24 25
64 25 40 0 48 -3 58 -25 12 -26 26 -32 37 -16 3 6 -13 55 -37 110 -31 75 -47
101 -60 101 -10 0 -23 -10 -28 -22z m45 -68 c9 -42 8 -44 -20 -47 -28 -4 -32
11 -13 52 15 33 25 32 33 -5z"/>
<path d="M6444 5127 c-3 -8 -3 -56 -2 -108 2 -76 6 -94 18 -94 10 0 16 12 18
38 3 32 7 37 28 37 13 0 24 -4 24 -8 0 -4 13 -23 29 -42 23 -27 32 -32 41 -23
10 9 8 18 -9 41 -26 37 -26 37 -1 62 11 11 20 31 20 45 0 44 -32 65 -100 65
-41 0 -62 -4 -66 -13z m119 -39 c16 -24 -9 -48 -49 -48 -31 0 -34 3 -34 28 0
16 3 32 7 36 13 12 66 2 76 -16z"/>
<path d="M2965 5012 c9 -19 31 -69 49 -112 24 -56 55 -103 112 -170 132 -155
130 -153 97 -90 -93 175 -153 267 -248 375 l-26 30 16 -33z"/>
<path d="M7504 4863 c-30 -38 -76 -108 -100 -158 l-45 -90 37 40 c63 69 110
138 142 208 17 37 29 67 27 67 -3 0 -30 -30 -61 -67z"/>
<path d="M4935 4760 c4 -6 183 -10 506 -10 326 0 499 3 499 10 0 7 -175 10
-506 10 -334 0 -503 -3 -499 -10z"/>
<path d="M5537 4597 c-5 -14 -5 -22 15 -142 l13 -80 6 50 c9 65 11 149 3 169
-7 19 -30 21 -37 3z"/>
<path d="M2723 4513 c-19 -21 -50 -60 -69 -88 -19 -27 -67 -95 -107 -150 -64
-86 -79 -101 -108 -106 -19 -3 -40 -9 -47 -13 -15 -9 -115 -156 -110 -161 2
-2 26 13 53 33 28 21 66 47 85 59 46 29 146 132 255 263 48 58 90 106 94 107
3 1 31 -38 62 -86 55 -85 58 -88 100 -94 24 -3 45 -4 48 -2 2 3 -9 21 -25 40
-30 37 -39 50 -119 168 -25 37 -53 67 -62 67 -8 0 -31 -17 -50 -37z"/>
<path d="M7723 4408 c-11 -13 -45 -57 -75 -98 -73 -100 -79 -104 -132 -97 -36
5 -46 3 -63 -16 -17 -19 -173 -245 -197 -285 -9 -16 145 144 194 201 27 31 39
38 59 34 14 -3 37 1 52 8 23 12 169 173 177 196 7 19 20 7 57 -53 116 -190
159 -242 121 -148 -19 49 -19 50 -3 50 7 0 26 -14 43 -31 34 -36 130 -107 118
-87 -18 30 -115 157 -123 162 -5 4 -21 7 -36 8 -20 2 -34 15 -57 53 -43 71
-88 125 -102 125 -7 0 -22 -10 -33 -22z"/>
<path d="M2927 4242 c-11 -17 267 -392 280 -378 2 2 -13 37 -34 77 -21 41 -39
77 -41 82 -2 4 28 7 66 7 l70 0 35 -47 c54 -73 181 -189 312 -283 64 -47 125
-89 134 -94 9 -6 -33 43 -94 108 -60 65 -129 129 -151 142 -23 14 -54 44 -70
67 -15 23 -57 75 -93 115 l-66 73 -80 -6 -80 -5 -53 70 c-39 52 -59 70 -77 70
-13 0 -30 3 -38 6 -8 3 -17 1 -20 -4z"/>
<path d="M6843 4086 c-45 -51 -78 -106 -65 -106 15 0 122 119 122 136 0 24
-17 16 -57 -30z"/>
<path d="M6908 3942 c-40 -33 -82 -69 -92 -81 l-19 -21 50 22 c56 25 173 112
173 128 0 25 -44 5 -112 -48z"/>
<path d="M4172 3978 c5 -16 137 -128 150 -128 5 0 -19 31 -54 70 -35 38 -71
70 -81 70 -11 0 -17 -6 -15 -12z"/>
<path d="M4071 3846 c-8 -10 -8 -16 2 -25 11 -9 193 -81 205 -81 23 0 -116 88
-171 109 -19 7 -28 6 -36 -3z"/>
<path d="M2841 3725 c-32 -130 -72 -179 -167 -205 l-45 -13 73 -36 c81 -40
103 -68 137 -176 19 -59 19 -60 30 -32 6 16 11 34 11 40 0 23 48 112 71 134
13 12 49 33 79 46 l54 24 -39 13 c-110 35 -131 58 -170 185 l-21 70 -13 -50z"/>
<path d="M3157 2983 c-23 -78 -34 -93 -89 -118 l-50 -23 43 -19 c55 -25 66
-38 94 -114 l22 -61 12 45 c20 69 46 104 97 130 l46 23 -45 18 c-56 21 -64 30
-92 109 l-23 62 -15 -52z"/>
</g>
</svg>
