<?xml version="1.0" standalone="no"?>
<!DOCTYPE svg PUBLIC "-//W3C//DTD SVG 20010904//EN"
 "http://www.w3.org/TR/2001/REC-SVG-20010904/DTD/svg10.dtd">
<svg version="1.0" xmlns="http://www.w3.org/2000/svg"
 width="1254.000000pt" height="1254.000000pt" viewBox="0 0 1254.000000 1254.000000"
 preserveAspectRatio="xMidYMid meet">

<g transform="translate(0.000000,1254.000000) scale(0.100000,-0.100000)"
fill="#000000" stroke="none">
<path d="M7370 11565 c-36 -8 -111 -37 -167 -65 -227 -112 -405 -345 -511
-670 -36 -109 -75 -271 -92 -380 -6 -41 -12 -75 -13 -76 -1 -1 -26 -12 -54
-24 -51 -22 -55 -22 -115 -7 -35 9 -94 19 -133 22 -160 14 -153 11 -181 67
-109 215 -279 452 -440 611 -218 215 -417 333 -683 405 -86 23 -115 25 -286
26 -149 1 -208 -3 -272 -17 -324 -72 -574 -224 -598 -367 -9 -55 21 -120 71
-151 37 -23 48 -24 204 -26 223 -2 319 -23 469 -104 192 -103 334 -263 452
-504 55 -113 129 -316 129 -353 0 -9 -35 -53 -78 -98 -81 -84 -182 -224 -233
-325 l-29 -58 -67 30 c-130 58 -227 81 -343 81 -141 0 -223 -23 -440 -123
-208 -96 -349 -148 -485 -179 -124 -28 -166 -49 -196 -97 -31 -49 -31 -137 -1
-206 78 -176 297 -388 521 -506 273 -143 540 -168 825 -77 l74 23 6 -41 c14
-96 47 -463 58 -640 l12 -191 60 -61 c51 -50 135 -117 250 -197 18 -12 18 -17
2 -122 -9 -61 -26 -152 -39 -204 l-22 -94 -55 -12 c-119 -25 -170 -65 -195
-153 -46 -162 -124 -401 -166 -507 -67 -172 -128 -300 -137 -289 -43 49 -100
126 -156 207 l-68 97 -40 -62 c-39 -60 -40 -62 -25 -93 37 -78 209 -289 351
-430 228 -227 440 -379 723 -515 562 -271 1164 -330 1785 -174 53 13 99 24
102 24 2 0 6 -10 8 -22 7 -52 144 -11 248 73 30 25 103 68 162 96 391 187 719
453 970 788 479 638 649 1468 458 2236 -29 116 -84 282 -123 372 l-20 49 -71
-7 c-39 -4 -72 -8 -74 -10 -2 -1 15 -47 36 -101 187 -470 232 -969 132 -1453
-117 -562 -440 -1086 -890 -1442 -161 -127 -348 -245 -336 -212 3 10 20 61 38
113 17 52 33 97 34 99 2 2 10 -4 19 -13 36 -35 57 -14 98 99 39 109 48 197 41
376 -5 111 -4 159 4 159 20 0 126 105 164 164 21 32 48 90 60 128 18 55 29 73
54 89 95 59 202 222 239 364 59 228 33 432 -80 640 -85 155 -128 388 -127 685
0 239 19 530 36 547 9 10 26 7 82 -16 189 -77 403 -96 574 -52 112 29 276 108
370 178 149 111 305 294 367 430 35 76 38 168 7 210 -31 41 -71 61 -160 79
-126 25 -207 51 -404 130 -223 88 -295 107 -420 108 -151 1 -244 -30 -465
-159 -159 -92 -148 -92 -225 10 -95 126 -256 278 -398 375 -18 12 -24 31 -33
110 -18 143 -15 445 5 563 40 239 102 339 256 417 89 45 129 88 137 149 16
121 -67 213 -234 256 -71 19 -225 18 -313 0z m244 -84 c33 -22 86 -96 86 -120
0 -10 -26 -30 -65 -50 -36 -18 -64 -35 -62 -37 2 -2 28 9 58 26 60 33 79 37
79 16 0 -8 -24 -28 -54 -45 -30 -16 -57 -35 -61 -41 -4 -6 -19 8 -37 34 -55
84 -155 145 -250 153 -32 3 -58 9 -58 13 0 9 98 46 155 59 75 17 177 13 209
-8z m106 -12 c58 -26 110 -66 110 -85 0 -9 -11 -14 -34 -14 -19 0 -41 -2 -49
-6 -9 -3 -18 5 -27 25 -6 16 -28 46 -46 66 -41 42 -26 47 46 14z m-2846 -86
l30 -9 -55 -31 c-113 -64 -194 -181 -235 -340 -2 -8 -14 -6 -42 7 -41 20 -184
60 -214 60 -28 0 -24 40 5 41 21 2 21 2 -2 6 -22 4 -23 8 -18 53 7 58 45 136
87 178 22 22 44 33 78 37 26 4 52 8 57 11 17 7 279 -4 309 -13z m2472 -4 c57
-18 77 -31 129 -82 77 -77 85 -103 48 -155 -16 -21 -39 -63 -53 -93 -13 -30
-25 -56 -27 -58 -1 -2 -24 15 -50 38 -27 22 -78 53 -114 68 -57 25 -76 28
-179 28 -76 0 -126 -5 -148 -14 -18 -7 -35 -11 -39 -8 -21 22 211 271 264 283
16 3 33 7 38 9 25 9 68 3 131 -16z m-2953 -31 c-41 -47 -69 -106 -87 -190 -5
-22 -13 -28 -34 -29 l-27 -2 28 -4 c19 -3 27 -10 27 -24 0 -17 -8 -19 -62 -20
-35 0 -87 -4 -116 -8 -45 -6 -55 -5 -63 10 -14 26 -13 27 39 34 26 3 56 10 67
15 17 7 14 9 -15 10 -19 1 -50 1 -67 0 -27 -1 -33 2 -33 20 0 11 7 36 15 56
12 29 27 40 92 70 66 30 219 82 247 83 5 1 0 -9 -11 -21z m684 -19 c116 -40
312 -147 313 -170 0 -4 -20 -9 -45 -11 -59 -7 -197 -74 -260 -127 -48 -39
-125 -125 -144 -160 -8 -14 -14 -12 -43 14 l-33 30 32 -35 c31 -34 32 -49 7
-79 -2 -2 -29 20 -60 48 -31 28 -85 68 -120 89 -54 31 -64 41 -64 65 0 31 1
32 40 12 17 -9 30 -13 30 -11 0 3 -13 12 -30 21 -18 9 -30 23 -30 35 0 41 51
133 106 190 55 58 156 120 195 120 9 0 57 -14 106 -31z m2763 0 c0 -19 -44
-69 -61 -69 -4 0 -14 -3 -23 -6 -11 -4 -16 -1 -16 10 0 9 6 16 13 16 6 1 26 7
42 16 l30 14 -42 -4 c-39 -4 -43 -2 -43 17 0 19 6 22 50 24 44 1 50 -1 50 -18z
m-140 -78 c0 -5 -11 -16 -25 -25 -13 -9 -35 -28 -50 -43 -23 -26 -25 -26 -25
-7 0 21 28 52 65 72 25 14 35 15 35 3z m-3667 -76 c-15 -47 -18 -51 -67 -67
-28 -9 -52 -15 -54 -13 -9 8 36 60 82 95 28 21 51 38 52 37 1 -1 -5 -24 -13
-52z m3484 -155 c-35 -74 -46 -90 -51 -73 -8 25 4 58 52 143 54 96 53 47 -1
-70z m-2035 73 c91 -73 298 -293 298 -317 0 -3 -13 -6 -28 -6 -125 0 -382
-119 -514 -238 -21 -19 -40 -33 -42 -31 -2 2 -27 40 -57 84 -51 78 -159 215
-167 215 -5 0 4 -12 73 -104 28 -36 67 -94 87 -128 21 -35 43 -69 49 -76 9
-11 7 -19 -11 -35 -16 -16 -24 -18 -27 -9 -15 40 -181 274 -208 294 -6 4 4 34
25 75 66 132 237 266 370 292 84 16 116 13 152 -16z m-1457 -14 c8 -24 10 -23
-35 -37 l-35 -11 40 1 c42 2 65 -6 65 -23 0 -14 -88 -11 -119 6 -39 20 -47 43
-18 54 32 12 81 29 89 30 4 1 10 -8 13 -20z m3156 7 c83 -18 138 -46 194 -97
41 -38 91 -130 81 -148 -7 -11 -35 -186 -38 -238 -2 -45 -8 -52 -26 -30 -12
14 -2 123 22 241 19 88 18 86 8 86 -9 0 -37 -122 -47 -205 -3 -27 -8 -60 -11
-73 l-4 -22 -38 23 c-54 33 -80 44 -141 62 -105 29 -344 12 -403 -29 -41 -29
-48 -21 -32 37 31 108 67 214 94 274 25 54 34 65 80 88 88 45 157 53 261 31z
m-2877 -52 c9 -8 16 -16 16 -17 0 -1 -48 -3 -106 -5 -70 -1 -112 2 -121 10
-24 20 5 28 104 28 70 0 95 -4 107 -16z m116 -9 c19 -4 70 -21 113 -37 59 -23
77 -34 77 -49 0 -23 -2 -23 -48 0 -20 10 -71 29 -112 42 -41 13 -81 27 -87 32
-19 14 -16 29 5 23 9 -2 33 -8 52 -11z m308 -135 c97 -65 161 -127 155 -150
-3 -11 -7 -20 -10 -20 -2 0 -27 23 -56 51 -29 28 -78 69 -109 91 -32 21 -58
45 -58 53 0 23 12 19 78 -25z m1079 -168 c32 -10 129 -156 208 -312 l34 -68
-42 -7 c-114 -18 -419 -117 -451 -146 -20 -18 -34 -8 -50 32 -9 23 -19 39 -22
36 -3 -2 3 -23 12 -46 9 -23 15 -43 13 -44 -41 -27 -112 -67 -119 -67 -4 0
-20 30 -35 68 -43 108 -117 262 -127 262 -15 0 -8 -25 36 -125 73 -169 92
-230 77 -249 -21 -25 -26 -20 -45 42 -20 65 -103 261 -119 280 -11 14 -4 24
83 115 94 100 225 177 356 211 95 24 152 29 191 18z m-849 -47 c40 -45 100
-135 142 -212 29 -53 32 -64 20 -78 -12 -14 -19 -6 -62 71 -26 48 -71 117 -98
154 -47 63 -62 100 -41 100 5 0 23 -16 39 -35z m2165 -20 c81 -17 160 -51 205
-89 l32 -28 0 -179 c0 -98 -4 -179 -9 -179 -5 0 -34 11 -65 25 -51 22 -56 28
-58 57 l-1 33 -4 -33 c-4 -27 -8 -32 -21 -26 -45 19 -207 56 -289 66 l-93 12
6 71 c3 38 10 104 14 145 5 41 7 76 5 78 -6 6 -24 -68 -40 -163 -22 -129 -24
-135 -41 -135 -14 0 -15 11 -9 88 3 48 10 104 15 125 11 52 -7 57 -20 5 -28
-107 -41 -147 -52 -154 -8 -5 -9 0 -4 17 3 13 9 53 12 89 4 36 12 74 19 85 7
12 42 36 77 54 99 50 201 62 321 36z m277 -156 c7 -11 16 -95 21 -186 9 -160
7 -207 -6 -147 -4 16 -11 38 -16 49 -9 21 -29 201 -29 266 0 43 13 51 30 18z
m-2225 -149 c-3 -11 2 -34 11 -52 19 -37 78 -206 89 -255 3 -18 3 -33 -2 -33
-16 1 -40 47 -91 177 -51 129 -52 134 -37 163 17 32 40 32 30 0z m972 -165
c28 -55 50 -101 49 -102 -1 -1 -37 -9 -81 -18 -173 -36 -405 -124 -555 -212
-47 -27 -96 -56 -110 -64 -14 -7 -38 -24 -54 -37 -33 -26 -31 -27 -39 15 -5
27 -3 32 19 37 59 15 83 77 44 116 -27 27 -62 25 -90 -4 -18 -20 -21 -31 -15
-53 4 -15 9 -58 12 -94 3 -50 1 -68 -11 -78 -19 -16 -27 -2 -56 112 l-23 88
49 50 c146 149 438 293 678 333 129 23 123 26 183 -89z m251 69 c150 -43 273
-117 405 -243 99 -94 154 -166 229 -295 32 -55 58 -98 58 -94 0 4 -7 39 -15
78 -17 82 -72 218 -114 287 -17 26 -28 49 -26 51 7 7 95 -70 142 -123 l44 -50
-25 59 c-14 32 -42 80 -61 106 -42 57 -145 154 -186 175 -38 20 -37 26 4 18
48 -9 119 -47 184 -99 54 -43 55 -44 23 -10 -19 21 -56 51 -82 68 -27 17 -48
32 -48 33 0 2 34 -4 75 -12 309 -58 615 -241 827 -493 209 -250 308 -495 308
-767 l0 -65 -40 36 c-33 30 -47 36 -84 36 -25 0 -48 -4 -51 -10 -3 -5 -11 -10
-17 -10 -19 0 25 42 60 57 28 12 36 11 62 -2 16 -8 34 -23 39 -32 6 -10 11
-13 11 -7 0 18 -68 74 -91 74 -103 0 -202 -177 -216 -389 -5 -66 -8 -79 -17
-65 -7 12 -11 89 -11 204 0 144 4 202 18 263 24 101 77 206 129 252 37 34 44
37 87 32 l46 -5 -32 28 c-44 39 -97 49 -131 23 -75 -53 -120 -246 -129 -543
-5 -161 -2 -202 17 -315 48 -284 145 -512 376 -880 151 -242 179 -319 177
-495 -1 -137 -24 -236 -80 -343 -86 -165 -240 -259 -373 -227 -28 7 -50 14
-50 16 0 3 9 31 20 63 10 32 24 98 31 147 l11 90 68 69 c37 39 88 87 114 109
66 54 103 108 116 173 12 57 6 123 -10 123 -6 0 -10 -16 -10 -35 0 -38 -24
-95 -39 -95 -24 0 -120 -103 -140 -150 -12 -27 -24 -50 -26 -50 -3 0 1 16 9
35 14 33 14 34 -2 25 -29 -17 -49 -34 -55 -50 -3 -8 -5 9 -5 38 1 28 -2 55 -5
59 -4 3 -7 -5 -7 -19 0 -14 -5 -39 -11 -56 -9 -27 -13 -29 -38 -22 -16 4 -38
13 -50 20 -22 11 -22 11 -7 -19 9 -16 16 -38 15 -48 0 -10 -10 5 -23 32 -45
99 -167 175 -281 175 -53 0 -56 2 -84 41 -16 22 -33 53 -36 70 -10 43 -25 35
-25 -13 0 -57 38 -135 84 -176 42 -37 81 -58 189 -101 85 -34 146 -72 191
-119 27 -30 28 -34 23 -99 -13 -159 -57 -227 -170 -262 -216 -66 -476 -14
-717 145 -131 86 -340 311 -340 366 0 10 12 24 28 32 l27 14 -27 7 c-57 15
-118 -17 -149 -76 -26 -51 -24 -67 4 -41 44 41 68 30 138 -60 270 -350 566
-509 949 -509 129 -1 219 14 315 50 28 11 65 22 83 25 31 5 33 4 26 -17 -25
-82 -98 -175 -181 -230 -214 -142 -534 -147 -806 -11 -122 61 -208 125 -376
277 -43 40 -93 81 -112 91 l-34 19 20 -22 19 -22 -25 9 c-14 6 -109 33 -211
61 -298 82 -453 146 -620 257 -348 231 -499 553 -552 1169 l-12 146 39 52 c80
106 161 304 196 476 21 104 22 153 2 70 -47 -188 -125 -372 -215 -507 l-56
-84 15 -206 c20 -273 30 -358 61 -517 18 -94 18 -91 -2 -74 -32 27 -44 32 -38
15 3 -9 21 -25 39 -36 28 -17 66 -80 48 -80 -3 0 -30 14 -59 31 -46 26 -54 35
-59 67 -3 20 -12 69 -20 107 -29 145 -43 265 -70 585 -8 96 -15 203 -15 237 0
62 1 63 46 105 57 53 134 207 165 328 29 119 36 318 15 430 -17 93 -61 192
-100 229 -21 19 -23 27 -15 48 13 36 4 40 -10 5 -10 -24 -17 -28 -41 -24 -30
4 -120 -32 -120 -49 0 -13 -13 -11 -34 4 -17 13 -17 16 9 68 60 117 236 351
253 334 6 -6 40 -96 54 -145 5 -19 20 -46 33 -60 64 -71 134 -374 135 -584 0
-33 3 -56 7 -53 12 13 3 271 -13 367 -9 52 -29 136 -45 185 l-29 90 31 25
c249 199 501 320 784 374 50 10 100 20 113 22 13 3 22 12 22 22 0 16 -43 150
-65 205 -7 17 -3 18 56 11 35 -4 101 -17 147 -30z m-999 -358 c9 -10 9 -20 0
-40 -15 -33 -36 -33 -51 -1 -18 41 23 75 51 41z m3362 -140 c36 -8 115 -33
175 -56 60 -24 165 -64 233 -90 70 -27 174 -58 239 -71 133 -26 162 -44 162
-103 0 -95 -139 -295 -300 -430 -306 -258 -648 -306 -984 -139 -76 38 -82 54
-10 29 67 -23 67 -12 0 21 -31 15 -56 31 -56 35 0 10 -3 11 58 -12 66 -25 61
-12 -7 20 -28 13 -51 28 -51 33 0 5 6 7 13 4 144 -64 275 -97 381 -97 68 0
194 21 236 39 l25 12 -25 -6 c-14 -4 -71 -9 -127 -12 -125 -7 -214 12 -323 69
-79 41 -77 41 35 9 86 -24 125 -33 125 -27 0 2 -38 23 -85 46 -47 24 -84 44
-82 47 2 2 33 -5 68 -16 75 -23 224 -61 236 -61 4 1 -28 16 -72 34 -93 38
-184 90 -145 83 14 -3 89 -21 168 -41 160 -40 217 -47 102 -12 -76 22 -226 93
-217 102 2 3 24 0 48 -6 24 -6 98 -24 163 -40 66 -16 122 -27 124 -25 3 3 -1
7 -9 9 -8 3 -50 17 -94 31 -65 22 -185 79 -185 89 0 1 75 -15 168 -36 92 -21
171 -38 176 -38 23 0 -10 14 -111 48 -59 21 -119 46 -133 55 l-25 18 40 -6
c22 -4 100 -18 173 -32 142 -27 182 -26 85 2 -81 23 -193 61 -200 69 -14 13
119 5 222 -14 127 -23 118 -22 111 -11 -4 5 -24 12 -45 16 -22 4 -45 13 -51
20 -6 7 -41 26 -78 41 -76 31 -104 51 -57 39 151 -36 246 -55 280 -54 35 0 28
3 -45 24 -84 23 -216 74 -193 75 6 0 60 -12 120 -26 132 -32 292 -42 378 -23
l60 13 -100 12 c-123 15 -198 34 -332 84 -231 87 -318 77 -478 -54 -134 -110
-230 -179 -289 -207 -63 -30 -76 -30 -76 1 0 10 -12 51 -26 91 -25 70 -26 73
-8 87 18 13 18 14 -3 8 -16 -5 -25 -2 -32 13 -15 28 -14 39 7 45 9 4 28 16 42
27 25 20 25 20 -17 0 -52 -26 -60 -26 -73 -1 -9 17 -5 22 32 41 24 12 84 46
133 77 128 79 206 112 320 136 44 9 144 5 206 -8z m-4211 -273 c36 -8 139 -50
230 -93 91 -43 183 -83 205 -91 37 -12 85 -53 85 -72 0 -5 -15 -6 -32 -3 -31
6 -31 5 -8 -5 14 -6 32 -14 40 -18 31 -16 48 -141 34 -258 -7 -52 -7 -52 -38
-47 -131 23 -254 82 -416 198 -186 134 -276 176 -382 176 -70 0 -123 -15 -293
-83 -174 -69 -308 -105 -418 -114 -101 -8 -86 -22 30 -30 134 -9 226 9 558
104 13 3 16 2 10 -4 -14 -14 -205 -87 -293 -114 -40 -12 -72 -23 -70 -24 5 -5
144 23 227 46 97 27 211 49 211 40 0 -6 -178 -77 -268 -106 -98 -32 -45 -26
119 14 90 21 184 42 209 45 l45 6 -55 -26 c-84 -40 -242 -104 -257 -104 -7 0
-13 -4 -13 -10 0 -13 -9 -15 139 29 71 22 156 42 188 46 l58 6 -70 -31 c-38
-18 -106 -47 -150 -66 -44 -18 -76 -33 -70 -34 5 0 57 13 115 30 114 32 267
62 253 51 -13 -12 -215 -99 -245 -106 -16 -4 -28 -11 -28 -16 0 -12 -3 -13
133 26 126 37 264 59 202 33 -16 -7 -52 -25 -80 -39 -27 -14 -77 -36 -110 -49
-65 -25 -93 -42 -54 -33 13 3 76 20 139 39 63 18 135 36 160 39 l45 7 -81 -45
c-45 -25 -98 -50 -118 -57 -20 -6 -38 -16 -41 -21 -8 -12 -10 -13 101 21 100
31 224 60 224 53 0 -3 -55 -31 -122 -63 -68 -33 -118 -59 -111 -59 6 -1 65 15
130 35 188 58 182 56 158 38 -38 -29 -200 -103 -260 -119 -116 -30 -231 -39
-317 -26 -44 7 -82 10 -85 8 -8 -9 122 -28 227 -33 139 -8 238 14 449 100 89
36 167 66 174 66 6 -1 -23 -19 -65 -40 -42 -22 -79 -44 -82 -49 -3 -5 31 4 76
20 44 16 82 28 84 27 1 -2 -35 -23 -82 -47 -46 -24 -82 -46 -81 -48 2 -1 37 8
77 22 40 14 78 25 84 24 16 0 -195 -106 -288 -143 -385 -155 -761 -82 -1104
214 -78 67 -185 197 -221 267 -12 24 -24 63 -27 87 -6 38 -3 47 22 75 25 27
44 34 139 55 153 34 251 70 465 168 294 136 403 157 590 111z m4315 -143 c42
-11 1 -11 -50 -1 -34 7 -35 9 -10 9 17 0 44 -4 60 -8z m-850 -540 c22 -24 25
-81 6 -104 -44 -53 -106 39 -71 105 14 25 42 24 65 -1z m60 -246 c-21 -78 -71
-141 -119 -150 -39 -7 -76 9 -76 34 0 13 9 17 44 17 25 0 42 -4 39 -9 -4 -5
-1 -6 6 -2 6 4 9 11 6 16 -3 5 0 12 6 16 6 3 22 30 35 58 16 36 23 44 23 29 2
-45 20 -22 33 40 8 41 14 54 16 38 2 -14 -4 -53 -13 -87z m37 -252 c-3 -174 1
-270 12 -357 8 -65 14 -120 12 -122 -8 -8 -151 279 -196 391 l-24 59 23 18
c24 20 17 26 -9 9 -11 -7 -17 -5 -22 8 -13 33 -8 40 38 47 60 9 115 58 145
130 13 30 23 55 23 55 1 0 0 -107 -2 -238z m-3225 126 c16 -10 40 -18 54 -18
25 0 27 -4 33 -62 3 -35 22 -218 41 -408 20 -190 42 -387 50 -439 9 -52 13
-96 11 -99 -6 -6 -135 97 -188 150 -34 34 -38 43 -38 91 0 28 -4 93 -9 142 -5
50 -12 131 -16 180 -6 87 -31 370 -39 448 -7 66 12 39 32 -45 21 -91 43 -118
34 -42 l-5 46 31 -16 c36 -19 42 -20 42 -6 0 6 -7 10 -16 10 -22 0 -84 66 -84
89 0 27 13 34 27 15 7 -10 25 -26 40 -36z m309 -1298 c-2 -44 -7 -84 -10 -88
-3 -5 -7 -33 -10 -63 -3 -30 -7 -70 -11 -89 -4 -24 0 -18 12 18 15 45 20 51
33 40 12 -11 12 -11 1 4 -9 12 -11 30 -7 53 14 75 43 18 32 -63 -9 -64 7 -42
29 40 15 55 21 66 31 57 20 -16 19 -73 -1 -65 -17 6 -21 -9 -4 -20 7 -4 9 -23
4 -53 -9 -66 -62 -288 -81 -341 -9 -25 -18 -51 -20 -59 -6 -19 -64 37 -110
105 l-33 50 19 65 c46 148 110 421 110 465 0 13 5 24 11 24 7 0 9 -26 5 -80z
m122 -45 c3 -34 2 -37 -12 -26 -19 16 -22 75 -3 69 6 -3 13 -22 15 -43z m-64
-30 c-5 -12 -9 -13 -20 -4 -15 12 -19 51 -7 63 11 10 34 -40 27 -59z m396
-251 c41 -28 114 -74 163 -103 48 -29 85 -56 82 -61 -10 -16 -137 44 -248 117
-37 25 -70 43 -73 40 -6 -6 106 -87 155 -112 l33 -17 -31 -19 c-23 -14 -31
-27 -32 -49 -1 -16 -2 -35 -3 -41 -1 -7 11 -21 26 -32 23 -17 31 -18 57 -8 16
7 32 19 35 28 4 10 13 12 28 7 l23 -7 -21 19 c-12 11 -25 32 -28 47 l-7 28 41
-21 c34 -17 40 -25 35 -41 -4 -12 -8 -31 -10 -42 -6 -50 -45 -276 -55 -324 -6
-28 -18 -57 -25 -63 -32 -27 -356 134 -498 247 -54 42 -58 48 -52 77 7 33 45
195 96 406 16 69 32 134 34 145 4 17 20 5 103 -75 54 -53 131 -119 172 -146z
m-655 -45 c-4 -12 -16 -30 -26 -40 -10 -10 -19 -33 -19 -50 0 -29 -1 -30 -42
-27 -37 3 -44 7 -46 27 -5 36 16 67 57 84 75 32 84 33 76 6z m-15 -171 c13
-22 55 -74 93 -115 38 -40 68 -75 66 -77 -2 -2 -25 -7 -50 -11 -45 -7 -45 -7
-91 47 -61 71 -105 138 -113 171 -7 26 -6 27 32 27 36 0 41 -4 63 -42z m798
30 c17 -17 15 -53 -3 -68 -13 -10 -19 -10 -35 5 -25 22 -25 44 -2 61 21 17 25
17 40 2z m206 -68 c-9 -3 -10 -10 -4 -20 18 -28 12 -60 -11 -60 -19 0 -21 4
-15 33 4 17 10 52 13 77 l6 45 12 -35 c10 -28 9 -36 -1 -40z m-1126 33 c6 -15
12 -31 12 -35 0 -9 13 -25 101 -127 l66 -76 -19 -60 c-74 -231 -213 -645 -225
-668 l-14 -28 -83 76 c-46 42 -100 96 -120 120 l-37 44 42 83 c71 142 216 536
244 666 8 39 16 40 33 5z m1186 -38 c3 -8 1 -15 -4 -15 -6 0 -10 7 -10 15 0 8
2 15 4 15 2 0 6 -7 10 -15z m4 -78 c3 -21 0 -26 -12 -21 -19 7 -22 58 -3 52 6
-3 13 -17 15 -31z m102 -43 c0 -2 -7 -4 -15 -4 -11 0 -15 11 -15 38 l1 37 14
-34 c8 -18 15 -35 15 -37z m-170 17 c13 -25 13 -61 -1 -61 -5 0 -7 -4 -4 -10
11 -18 25 -11 25 13 0 12 4 28 9 36 14 23 43 -6 39 -38 -2 -19 -8 -25 -23 -23
-19 2 -19 2 -1 -12 18 -15 18 -19 1 -143 -10 -70 -19 -129 -20 -130 -1 -2 -25
4 -53 12 -50 15 -52 17 -52 53 0 20 10 101 22 180 23 142 34 166 58 123z m714
-136 l16 -70 -4 58 c-3 31 -2 57 2 57 4 0 23 -14 42 -29 27 -23 39 -44 52 -93
17 -61 18 -62 13 -15 -5 52 0 56 36 29 35 -27 149 -95 190 -114 35 -15 37 -19
49 -87 6 -39 14 -71 17 -71 3 0 2 29 -2 65 -3 36 -5 65 -3 65 2 0 48 -11 103
-25 55 -14 144 -29 197 -32 l97 -6 6 -56 c11 -101 24 -123 18 -30 l-6 86 58
11 c32 7 62 12 66 12 4 0 10 -19 14 -42 11 -69 26 -81 19 -16 -5 50 -4 57 14
67 29 16 42 14 43 -6 1 -12 4 -9 8 7 4 14 14 26 23 28 23 4 33 -61 33 -213 0
-104 -14 -207 -33 -239 -3 -5 -15 26 -27 70 -12 43 -30 97 -40 119 l-19 40 -7
-100 c-25 -326 -161 -598 -369 -738 -29 -20 -56 -35 -58 -33 -2 3 4 42 13 88
24 114 16 277 -20 412 -26 99 -52 166 -37 96 19 -94 0 -340 -28 -340 -4 0 -12
25 -19 56 -7 31 -58 147 -113 258 -56 110 -116 242 -134 291 -37 97 -37 91 1
-119 14 -76 24 -141 21 -143 -9 -9 -124 157 -163 237 -68 135 -115 331 -126
518 l-3 63 22 -23 c14 -14 28 -50 38 -93z m-534 48 c0 -8 -13 -13 -31 -13 -28
0 -31 3 -25 23 3 12 6 28 6 36 0 17 50 -29 50 -46z m-888 -50 c111 -80 289
-178 408 -224 47 -18 89 -35 93 -39 4 -4 3 -20 -3 -36 -7 -16 -29 -114 -50
-219 -64 -315 -132 -629 -139 -642 -11 -21 -258 85 -436 188 -83 47 -247 160
-305 210 l-24 21 112 336 c62 185 112 340 112 343 0 4 7 23 15 43 l15 36 72
-56 c40 -30 113 -80 162 -109 95 -57 314 -160 322 -152 2 2 -24 17 -58 32
-111 50 -330 189 -442 281 l-38 32 29 10 c48 18 60 14 155 -55z m938 36 c0 -5
-4 -9 -10 -9 -5 0 -10 7 -10 16 0 8 5 12 10 9 6 -3 10 -10 10 -16z m-72 -28
c31 -26 29 -50 -3 -43 -42 7 -29 -17 20 -39 49 -22 62 -36 47 -51 -6 -6 -14
-5 -23 4 -9 8 -27 11 -49 8 l-35 -5 53 -23 c39 -17 52 -28 52 -43 0 -18 -4
-20 -26 -15 -15 4 -40 10 -57 13 -44 9 -26 -14 23 -28 22 -7 50 -23 62 -37
l23 -25 -25 6 c-14 3 -49 9 -78 13 -29 4 -55 10 -57 14 -3 5 2 57 10 117 25
171 23 167 63 134z m70 -45 c3 -12 -1 -17 -10 -14 -7 3 -15 13 -16 22 -3 12 1
17 10 14 7 -3 15 -13 16 -22z m57 -15 c3 -6 -4 -9 -15 -8 -11 1 -20 5 -20 9 0
11 28 10 35 -1z m7 -72 l33 -21 -39 6 c-44 6 -51 10 -41 25 8 15 9 14 47 -10z
m-27 -59 c4 -6 21 -17 38 -25 31 -14 31 -14 5 -10 -65 11 -78 16 -78 30 0 17
26 20 35 5z m25 -81 l35 -20 -30 6 c-16 4 -37 13 -45 21 -20 20 -1 17 40 -7z
m-289 -57 c126 -33 299 -62 372 -62 51 0 72 -16 30 -23 -27 -4 -26 -4 4 -6 22
-1 36 -8 44 -23 l11 -21 -108 6 c-105 6 -309 35 -407 58 -26 6 -50 9 -53 6 -8
-8 242 -66 356 -82 58 -8 131 -15 163 -15 l57 0 0 -37 c0 -105 -42 -680 -56
-762 l-5 -33 -102 7 c-218 14 -495 62 -622 108 -48 17 -49 -7 11 282 92 449
125 598 135 617 12 23 5 24 170 -20z m559 -76 c8 -2 -9 -4 -37 -5 -29 0 -53 3
-53 7 0 7 52 6 90 -2z m60 -35 c0 -16 -104 -20 -120 -5 -12 12 -5 14 53 14 37
0 67 -4 67 -9z m54 -66 c-5 -13 -58 -37 -76 -34 -7 1 -20 0 -28 -4 -49 -18
-60 -16 -60 12 0 15 3 30 6 34 11 11 162 3 158 -8z m-94 -83 c0 -26 -20 -42
-52 -42 -23 0 -28 4 -28 23 0 31 7 37 47 37 25 0 33 -4 33 -18z m77 3 c7 -20
3 -23 -35 -31 -29 -6 -32 -4 -32 20 0 22 4 26 30 26 18 0 33 -6 37 -15z m51
-3 c2 -7 -6 -12 -17 -12 -21 0 -27 11 -14 24 9 9 26 2 31 -12z m-145 -94 l-2
-38 89 0 c83 0 90 -2 90 -20 0 -13 -9 -21 -27 -25 -16 -3 -44 -10 -63 -15 -19
-5 -46 -11 -60 -13 -14 -3 16 -5 66 -6 83 -1 92 -3 97 -21 6 -25 3 -27 -61
-36 -29 -3 -52 -11 -52 -16 0 -6 23 -7 60 -3 44 5 60 4 60 -5 0 -10 3 -10 14
0 19 15 61 9 61 -9 0 -9 -22 -21 -60 -32 -33 -10 -76 -23 -95 -28 -27 -8 -13
-9 68 -6 101 5 103 4 100 -17 -3 -22 -21 -29 -173 -63 -50 -11 -54 -13 -25
-14 39 -1 201 16 237 25 18 5 23 2 23 -14 0 -29 -60 -50 -270 -91 -43 -8 -44
-9 -10 -10 37 -1 180 14 243 25 33 6 37 4 37 -15 0 -27 -20 -35 -165 -67 -60
-14 -123 -29 -140 -34 -26 -8 -24 -8 15 -5 124 11 307 37 322 46 24 12 28 12
28 -6 0 -35 -216 -98 -394 -115 -61 -5 -113 -7 -117 -3 -7 8 11 312 31 528 5
61 10 118 10 128 0 15 7 18 33 15 30 -3 32 -5 30 -40z m92 32 c5 -8 11 -7 20
0 8 7 23 9 35 5 37 -12 21 -31 -38 -43 -86 -18 -89 -17 -84 18 4 25 9 30 33
30 15 0 31 -5 34 -10z m155 -74 c0 -14 -29 -31 -38 -21 -6 6 18 35 29 35 5 0
9 -6 9 -14z m15 -86 c0 -9 -11 -16 -27 -18 -30 -4 -31 -2 -22 23 8 20 49 16
49 -5z m70 -71 c-8 -12 -35 -12 -35 0 0 11 22 20 33 14 4 -2 5 -9 2 -14z m10
-80 c0 -7 -8 -15 -17 -17 -18 -3 -25 18 -11 32 10 10 28 1 28 -15z m60 -69
c-3 -5 -11 -10 -16 -10 -6 0 -7 5 -4 10 3 6 11 10 16 10 6 0 7 -4 4 -10z m3
-97 c-6 -7 -14 -13 -19 -13 -14 0 -11 38 4 43 17 6 28 -15 15 -30z"/>
<path d="M4930 10956 c0 -2 8 -10 18 -17 15 -13 16 -12 3 4 -13 16 -21 21 -21
13z"/>
<path d="M5408 11073 c6 -2 18 -2 25 0 6 3 1 5 -13 5 -14 0 -19 -2 -12 -5z"/>
<path d="M6876 10955 c-9 -26 -7 -32 5 -12 6 10 9 21 6 23 -2 3 -7 -2 -11 -11z"/>
<path d="M6871 10754 c-7 -25 -10 -48 -8 -51 3 -2 10 17 16 43 7 25 10 48 8
51 -3 2 -10 -17 -16 -43z"/>
<path d="M6795 10720 c-4 -17 -5 -34 -2 -36 3 -3 8 9 12 26 4 17 5 34 2 36 -3
3 -8 -9 -12 -26z"/>
<path d="M5770 10676 c0 -2 7 -6 15 -10 8 -3 15 -1 15 4 0 6 -7 10 -15 10 -8
0 -15 -2 -15 -4z"/>
<path d="M5966 10206 c-31 -31 -32 -45 -5 -80 35 -44 100 -30 114 25 8 31 -19
65 -57 75 -21 4 -33 0 -52 -20z m58 -12 c21 -8 20 -50 -1 -58 -10 -4 -24 1
-37 13 -16 17 -17 22 -6 35 14 18 21 19 44 10z"/>
<path d="M6630 10046 c0 -2 8 -10 18 -17 15 -13 16 -12 3 4 -13 16 -21 21 -21
13z"/>
<path d="M5108 9724 c-33 -17 -48 -43 -48 -83 0 -20 7 -34 20 -41 17 -9 24 -6
45 16 25 27 32 69 17 106 -6 15 -10 15 -34 2z m22 -58 c0 -33 -23 -51 -40 -31
-11 13 -10 19 5 35 24 26 35 25 35 -4z"/>
<path d="M5461 9524 c-25 -32 -27 -61 -5 -92 34 -49 114 -9 114 58 0 59 -72
81 -109 34z m67 -6 c18 -18 15 -43 -8 -63 -16 -15 -22 -15 -35 -5 -20 16 -19
39 2 62 19 21 25 22 41 6z"/>
<path d="M4969 9503 c-13 -16 -12 -17 4 -4 9 7 17 15 17 17 0 8 -8 3 -21 -13z"/>
<path d="M5983 9295 c-66 -15 -210 -84 -238 -115 -15 -17 -14 -17 23 1 22 11
76 28 120 37 69 14 91 15 153 4 157 -27 289 -140 380 -327 28 -58 53 -105 54
-105 4 0 -15 61 -49 157 -97 280 -242 394 -443 348z"/>
<path d="M5904 8880 c-88 -18 -173 -71 -224 -142 -45 -62 -36 -66 13 -6 28 35
64 63 102 83 53 27 68 30 154 30 106 0 153 -16 221 -74 l35 -31 -62 31 c-158
77 -336 35 -442 -106 -49 -65 -97 -85 -159 -67 l-37 11 23 -19 c13 -11 47 -27
76 -36 l53 -17 6 -71 c13 -146 69 -239 179 -295 87 -44 168 -50 328 -22 109
20 111 20 41 16 l-73 -4 36 27 c76 57 116 145 117 261 l0 76 30 -65 c17 -36
39 -96 49 -135 36 -130 83 -235 127 -284 l42 -46 -24 66 c-13 36 -40 136 -60
223 -20 87 -48 188 -62 224 -77 206 -191 326 -348 367 -64 16 -79 17 -141 5z
m-87 -240 c-41 -48 -57 -98 -57 -177 0 -71 36 -151 84 -187 36 -27 100 -50
119 -43 6 3 1 6 -13 7 -23 1 -23 2 -5 10 32 14 95 12 93 -2 -2 -7 -7 -17 -13
-21 -6 -5 1 -6 15 -3 14 3 31 6 38 6 7 0 10 5 6 12 -4 7 -3 8 4 4 7 -4 20 -2
29 4 16 10 16 11 1 6 -12 -3 -15 -1 -11 10 3 7 10 14 17 15 6 0 4 3 -5 7 -14
6 -12 13 14 47 16 22 27 32 24 23 -4 -12 -2 -15 9 -11 8 3 14 -1 14 -11 0 -9
5 -16 10 -16 6 0 10 6 10 14 0 8 4 17 9 20 5 4 4 -10 -2 -30 -14 -45 -92 -116
-145 -132 -127 -38 -250 17 -311 140 -25 48 -31 74 -31 122 0 88 15 129 65
180 55 57 79 61 32 6z m327 -22 c35 -50 -1 -128 -59 -128 -91 0 -123 131 -41
165 36 15 73 1 100 -37z m33 -210 c-2 -13 -4 -5 -4 17 -1 22 1 32 4 23 2 -10
2 -28 0 -40z m-279 -135 c5 -17 -23 -16 -37 1 -9 10 -7 13 11 12 12 0 23 -7
26 -13z"/>
<path d="M5640 8306 c0 -11 30 -66 36 -66 2 0 -3 15 -12 33 -19 36 -24 44 -24
33z"/>
<path d="M6278 8103 c6 -2 18 -2 25 0 6 3 1 5 -13 5 -14 0 -19 -2 -12 -5z"/>
<path d="M6228 8093 c7 -3 16 -2 19 1 4 3 -2 6 -13 5 -11 0 -14 -3 -6 -6z"/>
<path d="M6328 8093 c7 -3 16 -2 19 1 4 3 -2 6 -13 5 -11 0 -14 -3 -6 -6z"/>
<path d="M5252 7994 c-17 -12 -22 -25 -22 -59 0 -34 5 -47 22 -59 27 -19 59
-21 76 -4 20 20 15 95 -8 118 -24 24 -38 25 -68 4z m58 -43 c7 -15 5 -25 -9
-42 l-18 -23 -18 27 c-14 22 -15 30 -5 42 17 20 37 19 50 -4z"/>
<path d="M6590 7960 c6 -11 13 -20 16 -20 2 0 0 9 -6 20 -6 11 -13 20 -16 20
-2 0 0 -9 6 -20z"/>
<path d="M5135 7510 c10 -11 20 -20 23 -20 3 0 -3 9 -13 20 -10 11 -20 20 -23
20 -3 0 3 -9 13 -20z"/>
<path d="M8085 7264 c-31 -27 -33 -31 -9 -15 28 18 62 51 53 51 -2 0 -22 -16
-44 -36z"/>
<path d="M7590 7255 c44 -25 179 -75 202 -75 13 1 -15 13 -62 29 -47 15 -99
35 -117 44 -39 21 -58 22 -23 2z"/>
<path d="M7975 7199 c-22 -10 -33 -18 -25 -18 8 0 31 8 50 19 45 25 27 24 -25
-1z"/>
<path d="M7843 7173 c15 -2 37 -2 50 0 12 2 0 4 -28 4 -27 0 -38 -2 -22 -4z"/>
<path d="M4058 8853 c7 -3 16 -2 19 1 4 3 -2 6 -13 5 -11 0 -14 -3 -6 -6z"/>
<path d="M4867 8162 c-20 -22 -22 -70 -5 -107 14 -31 62 -35 78 -6 26 49 -3
130 -46 131 -6 0 -18 -8 -27 -18z m51 -53 c3 -29 -12 -54 -27 -45 -12 8 -15
59 -4 70 12 12 28 0 31 -25z"/>
<path d="M4920 7691 c-14 -27 -13 -57 5 -90 30 -58 80 -41 80 27 0 66 -59 110
-85 63z m53 -33 c13 -19 2 -48 -17 -48 -18 0 -28 27 -20 52 6 21 23 20 37 -4z"/>
<path d="M5157 6579 c7 -7 15 -10 18 -7 3 3 -2 9 -12 12 -14 6 -15 5 -6 -5z"/>
<path d="M5405 6914 c-4 -16 -13 -46 -21 -67 -10 -26 -11 -44 -5 -55 8 -15 11
-13 20 12 8 19 16 26 27 22 13 -5 13 -3 -1 16 -19 28 -19 33 1 53 15 15 15 18
1 32 -14 15 -16 14 -22 -13z"/>
<path d="M5791 6484 c0 -11 3 -14 6 -6 3 7 2 16 -1 19 -3 4 -6 -2 -5 -13z"/>
<path d="M5745 6210 c3 -5 14 -10 23 -10 15 0 15 2 2 10 -20 13 -33 13 -25 0z"/>
<path d="M4855 6490 c-4 -17 -5 -34 -2 -36 2 -3 7 10 11 27 8 42 0 50 -9 9z"/>
<path d="M4789 6220 c-9 -5 -22 -23 -29 -39 -10 -26 -10 -35 7 -63 46 -79 145
-18 112 69 -16 42 -52 55 -90 33z m61 -35 c18 -21 -2 -65 -29 -65 -24 0 -36
32 -21 60 13 24 33 26 50 5z"/>
<path d="M5513 5880 c-47 -19 -57 -87 -18 -125 47 -48 119 -19 119 49 0 56
-52 95 -101 76z m65 -67 c-3 -30 -28 -49 -52 -40 -22 9 -21 63 1 76 27 15 55
-5 51 -36z"/>
<path d="M5391 5414 c-28 -35 -26 -69 4 -99 33 -34 77 -33 104 1 28 35 26 69
-4 99 -33 34 -77 33 -104 -1z m89 -24 c15 -28 -4 -60 -35 -60 -30 0 -46 27
-34 58 11 28 54 30 69 2z"/>
<path d="M5831 5754 c0 -11 3 -14 6 -6 3 7 2 16 -1 19 -3 4 -6 -2 -5 -13z"/>
<path d="M6241 5703 c-11 -10 -24 -32 -27 -50 -5 -26 -1 -37 19 -57 33 -33 71
-33 102 -1 65 65 -23 166 -94 108z m81 -38 c14 -30 -3 -55 -38 -55 -17 0 -25
7 -30 25 -13 51 46 77 68 30z"/>
<path d="M6191 5214 c-12 -15 -21 -37 -21 -49 0 -64 83 -91 127 -41 28 33 29
56 2 90 -15 19 -30 26 -54 26 -24 0 -39 -7 -54 -26z m89 -24 c6 -11 4 -24 -6
-38 -21 -31 -52 -28 -65 5 -9 24 -7 30 11 45 23 19 46 15 60 -12z"/>
<path d="M6518 5155 c-2 -47 0 -85 5 -85 4 0 7 21 8 48 0 26 1 64 3 85 2 20
-1 37 -5 37 -4 0 -9 -38 -11 -85z"/>
<path d="M3715 8246 c-74 -244 -107 -468 -108 -731 0 -205 11 -325 48 -505 23
-112 53 -211 54 -179 1 8 21 54 45 102 l44 87 -13 77 c-55 318 -40 673 41 989
54 208 56 186 -16 217 -34 15 -63 27 -65 27 -3 0 -16 -38 -30 -84z"/>
<path d="M2924 7589 c4 -13 11 -71 16 -129 26 -277 32 -324 51 -387 42 -137
121 -247 234 -328 60 -43 193 -111 201 -102 14 13 -232 565 -298 668 -50 79
-50 79 -40 79 13 0 155 -216 212 -323 69 -129 180 -393 180 -427 0 -16 -5 -30
-11 -32 -17 -6 113 -253 209 -400 45 -68 82 -127 82 -131 0 -4 -33 9 -73 27
-41 18 -90 39 -110 45 -25 8 -47 27 -66 54 -43 63 -141 151 -199 181 -112 57
-253 70 -386 36 -74 -19 -276 -114 -276 -130 0 -4 16 -17 35 -29 20 -11 66
-45 104 -75 149 -121 256 -166 395 -166 94 0 165 16 272 62 l76 33 -39 17
c-108 47 -396 117 -568 138 -49 6 -92 14 -95 17 -3 3 65 3 150 0 113 -5 185
-13 265 -31 121 -28 221 -62 246 -83 9 -7 19 -10 24 -6 4 5 5 3 2 -3 -11 -19
27 -44 140 -93 163 -72 176 -80 242 -161 34 -41 114 -128 178 -192 64 -65 115
-119 112 -121 -2 -2 -47 3 -99 12 -87 15 -100 20 -150 61 -219 179 -497 150
-724 -76 -47 -46 -86 -89 -86 -94 0 -6 9 -10 20 -10 11 0 68 -18 127 -41 136
-51 211 -69 290 -69 83 0 155 16 229 51 60 28 194 124 194 139 0 27 -451 23
-590 -5 -144 -29 -136 -16 16 25 135 37 288 54 420 47 85 -4 107 -9 140 -30
27 -17 81 -33 173 -52 132 -26 135 -27 210 -84 160 -121 201 -142 201 -103 0
11 -32 42 -84 79 -106 78 -246 196 -314 265 l-53 54 -33 155 c-19 85 -37 171
-41 191 -3 22 -14 42 -25 48 -18 9 -19 8 -15 -17 3 -16 14 -84 25 -153 12 -69
23 -134 26 -145 7 -27 -77 63 -181 195 -99 127 -230 325 -316 479 l-63 113 12
82 c15 103 15 282 1 344 -6 26 -31 88 -55 139 -71 150 -210 276 -398 363 -44
21 -92 41 -105 45 -22 7 -23 5 -17 -16z"/>
<path d="M4062 7113 c-108 -107 -175 -207 -214 -323 -33 -94 -33 -267 0 -361
21 -63 71 -152 117 -213 l20 -26 1 177 c0 98 6 212 13 253 16 97 80 332 93
345 7 7 8 1 3 -20 -41 -171 -65 -398 -65 -615 0 -88 3 -160 8 -160 4 0 19 20
34 43 15 23 45 69 68 102 142 203 163 389 79 687 -16 59 -32 129 -36 157 -3
28 -9 51 -14 51 -5 0 -53 -44 -107 -97z"/>
<path d="M3587 4680 c-110 -19 -248 -71 -320 -122 -16 -11 -29 -19 -31 -17 -1
2 -13 21 -25 42 -35 58 -99 90 -179 90 -115 0 -191 -56 -212 -156 -7 -37 -10
-286 -8 -808 3 -733 4 -755 23 -788 11 -19 37 -48 58 -65 38 -30 42 -31 136
-31 89 0 101 2 138 27 24 16 49 44 62 70 20 43 21 56 21 509 0 574 6 616 105
715 72 72 139 98 265 102 90 3 114 1 165 -18 79 -29 153 -104 186 -186 23 -59
24 -62 29 -579 5 -502 6 -521 26 -555 54 -93 201 -123 315 -65 15 8 41 31 56
52 l28 36 6 516 c3 337 9 527 16 548 37 106 104 182 200 225 73 33 238 37 314
9 109 -41 186 -136 208 -255 7 -38 11 -236 11 -536 0 -474 0 -476 23 -520 27
-55 71 -85 143 -100 111 -23 229 32 254 118 8 26 10 213 8 607 -5 638 -2 612
-80 775 -54 113 -167 228 -278 282 -130 64 -213 82 -385 82 -173 1 -265 -18
-395 -82 -65 -32 -173 -108 -191 -134 -3 -4 -26 11 -52 35 -155 142 -416 214
-640 177z"/>
<path d="M6640 4684 c-14 -2 -52 -9 -85 -15 -204 -35 -408 -150 -531 -298 -68
-82 -134 -209 -171 -327 -26 -84 -27 -99 -27 -279 0 -178 2 -196 28 -280 94
-310 318 -533 625 -625 98 -29 152 -38 281 -45 325 -19 616 80 814 279 62 62
86 110 86 172 0 103 -76 184 -173 184 -47 0 -58 -6 -164 -93 -129 -105 -268
-156 -444 -164 -175 -8 -306 30 -432 125 -53 40 -140 148 -134 166 2 6 105 35
228 64 409 98 1101 272 1120 282 64 35 25 265 -76 446 -107 192 -280 320 -511
380 -81 21 -128 26 -254 29 -85 2 -166 2 -180 -1z m273 -390 c86 -22 165 -65
230 -124 62 -57 104 -117 91 -130 -5 -4 -94 -28 -199 -53 -104 -26 -266 -65
-360 -87 -93 -23 -225 -54 -292 -71 -68 -16 -127 -29 -133 -29 -15 0 -12 57 5
125 47 180 197 327 377 371 74 17 209 17 281 -2z"/>
<path d="M8646 4680 c-88 -14 -198 -46 -271 -79 -397 -180 -596 -631 -480
-1087 105 -414 450 -680 911 -701 215 -10 388 20 550 96 150 70 295 186 333
264 24 50 27 123 7 170 -20 46 -74 94 -123 106 -52 14 -96 -2 -155 -55 -232
-210 -576 -262 -842 -127 -86 44 -234 200 -210 222 5 5 137 39 294 75 286 68
968 238 1026 257 58 18 69 92 34 239 -72 301 -295 524 -602 601 -95 23 -371
35 -472 19z m296 -381 c79 -16 190 -73 250 -128 61 -56 106 -126 85 -134 -16
-6 -971 -237 -980 -237 -13 0 -7 90 9 137 66 195 208 325 399 363 60 12 177
11 237 -1z"/>
<path d="M1783 4336 c-89 -40 -99 -181 -17 -245 14 -11 41 -23 59 -27 23 -4
57 -31 121 -95 l89 -89 191 0 192 0 36 45 c49 59 69 58 131 -5 58 -59 95 -67
95 -22 0 20 -15 42 -58 85 -52 52 -62 57 -101 57 -39 0 -50 -6 -98 -51 l-54
-51 -151 4 -151 3 -68 74 -68 75 24 28 c72 85 18 216 -92 225 -28 2 -61 -3
-80 -11z m105 -73 c50 -42 24 -123 -39 -123 -65 0 -93 80 -43 119 33 26 55 26
82 4z"/>
<path d="M10604 4222 c-61 -29 -89 -101 -64 -166 7 -20 6 -31 -7 -46 -17 -19
-30 -20 -253 -20 l-235 0 -77 -76 c-83 -82 -98 -114 -50 -114 21 0 43 16 92
65 l64 65 230 0 230 0 31 30 c29 28 34 29 64 19 78 -27 163 38 163 126 0 102
-94 160 -188 117z m109 -75 c42 -49 -9 -130 -69 -110 -62 20 -70 102 -14 130
30 15 59 8 83 -20z"/>
<path d="M1801 3625 l-91 -92 0 -136 0 -135 -35 -12 c-95 -31 -123 -161 -50
-230 33 -31 110 -38 154 -16 77 41 94 146 32 210 l-31 32 0 130 0 130 73 72
72 72 378 0 377 0 0 35 0 35 -394 -1 -394 -1 -91 -93z m-39 -452 c24 -22 24
-77 -2 -103 -43 -43 -110 -10 -110 54 0 57 69 88 112 49z"/>
<path d="M9890 3615 l0 -35 294 0 294 0 69 -74 c54 -59 76 -76 106 -81 31 -6
37 -11 37 -32 0 -34 27 -77 60 -97 33 -19 98 -21 135 -4 71 32 87 151 28 210
-52 51 -147 48 -192 -6 -28 -33 -59 -19 -139 63 l-77 79 -307 7 -308 6 0 -36z
m980 -155 c11 -11 20 -33 20 -50 0 -63 -77 -94 -120 -48 -60 65 37 161 100 98z"/>
<path d="M2112 3417 l-82 -82 0 -152 0 -152 -28 -15 c-120 -62 -92 -238 41
-253 142 -16 205 171 82 247 l-35 22 0 137 0 137 63 62 63 62 232 2 232 3 0
33 0 32 -243 0 -242 0 -83 -83z m-3 -483 c12 -15 21 -35 21 -46 0 -25 -44 -68
-70 -68 -29 0 -70 44 -70 75 0 61 81 87 119 39z"/>
<path d="M9860 3310 l0 -30 208 0 207 0 147 -147 147 -148 -17 -47 c-15 -43
-15 -51 -2 -89 19 -52 55 -80 111 -86 123 -12 187 140 95 224 -30 28 -43 33
-84 33 l-49 0 -129 132 c-71 72 -141 144 -156 160 l-26 28 -226 0 -226 0 0
-30z m864 -372 c22 -31 20 -68 -6 -95 -28 -30 -63 -29 -93 2 -28 27 -31 45
-14 78 16 30 28 37 66 37 22 0 37 -7 47 -22z"/>
<path d="M6223 2708 c-67 -111 -83 -180 -59 -262 9 -30 29 -69 44 -87 l27 -33
7 55 c3 29 7 97 7 149 2 136 18 95 26 -67 l7 -134 30 28 c57 54 71 169 32 263
-18 43 -76 140 -84 140 -3 0 -20 -24 -37 -52z"/>
<path d="M5851 2468 c30 -77 57 -116 100 -148 43 -30 108 -44 153 -32 28 8 27
9 -73 87 -55 43 -101 80 -101 83 0 8 135 -71 173 -100 21 -17 41 -28 44 -25 9
10 -5 51 -29 87 -46 68 -118 100 -225 100 l-63 0 21 -52z"/>
<path d="M6505 2500 c-48 -23 -77 -46 -99 -81 -18 -29 -38 -89 -29 -89 3 0 26
15 52 33 66 48 161 100 161 89 0 -6 -6 -12 -12 -15 -7 -2 -52 -36 -100 -75
l-88 -70 36 -6 c55 -11 133 16 175 61 37 38 53 65 82 136 l16 37 -77 0 c-55 0
-89 -6 -117 -20z"/>
<path d="M3380 2423 c-827 -3 -1080 -11 -735 -24 150 -5 2359 -15 2768 -12
104 1 191 4 194 7 3 3 3 12 -1 21 -5 14 -76 15 -683 13 -373 -2 -1067 -4
-1543 -5z"/>
<path d="M6924 2416 c-4 -11 -1 -22 7 -27 9 -6 493 -7 1239 -4 1362 6 1896 13
1883 26 -4 4 -709 11 -1565 15 -1481 7 -1558 6 -1564 -10z"/>
<path d="M4920 2091 c-77 -16 -124 -57 -148 -130 -27 -77 -5 -178 49 -228 75
-69 210 -70 274 -3 28 29 28 30 10 50 -22 25 -30 25 -63 1 -60 -42 -141 -32
-177 23 -25 38 -30 106 -11 143 38 74 112 94 180 48 31 -21 40 -23 56 -13 11
7 22 19 25 26 8 21 -52 71 -93 78 -20 3 -44 7 -52 9 -8 1 -31 -1 -50 -4z"/>
<path d="M8115 2089 c-98 -23 -149 -93 -150 -206 0 -63 3 -76 30 -115 59 -84
175 -113 265 -65 60 32 71 51 42 79 -19 19 -25 21 -40 10 -9 -7 -32 -19 -51
-28 -126 -58 -230 129 -125 227 36 34 121 35 157 1 24 -23 26 -23 51 -7 32 21
33 35 4 63 -42 38 -119 56 -183 41z"/>
<path d="M3730 1890 l0 -200 41 0 40 0 -3 125 c-2 69 1 124 5 122 5 -1 28 -36
51 -77 33 -60 47 -76 68 -78 23 -3 31 6 74 80 l49 83 3 -125 c3 -131 6 -140
51 -136 l26 3 3 202 2 201 -44 0 -45 0 -56 -100 c-31 -55 -58 -100 -60 -100
-2 0 -30 45 -61 100 l-59 100 -42 0 -43 0 0 -200z"/>
<path d="M4347 2084 c-4 -4 -7 -94 -7 -199 l0 -192 68 -6 c37 -3 96 -3 130 0
l63 6 -3 31 -3 31 -87 3 -88 3 0 49 0 50 75 0 75 0 0 29 c0 26 -3 29 -46 35
-26 3 -60 6 -75 6 -28 0 -29 2 -29 45 l0 44 88 3 87 3 0 30 0 30 -121 3 c-66
1 -123 -1 -127 -4z"/>
<path d="M5321 1900 c-39 -105 -71 -197 -71 -205 0 -17 18 -19 53 -6 16 6 29
23 37 45 l12 36 79 0 80 0 19 -45 c17 -39 23 -45 50 -45 17 0 33 6 36 14 3 7
-24 89 -59 182 -36 93 -68 179 -71 192 -6 18 -14 22 -50 22 l-44 0 -71 -190z
m137 28 c11 -29 23 -61 27 -70 6 -16 0 -18 -50 -18 -42 0 -56 3 -52 13 2 6 13
38 23 69 11 32 22 58 26 58 4 0 15 -24 26 -52z"/>
<path d="M5700 2055 l0 -35 55 0 55 0 0 -164 c0 -91 4 -167 9 -170 5 -3 23 -3
40 0 l31 7 0 163 0 163 58 3 c56 3 57 3 57 33 l0 30 -152 3 -153 3 0 -36z"/>
<path d="M6172 1888 l3 -203 24 -3 c36 -5 45 12 42 83 l-2 65 30 0 c27 0 35
-8 71 -69 42 -70 61 -83 108 -72 22 6 22 7 -23 80 l-46 74 25 21 c33 29 46 58
46 105 0 33 -7 49 -34 79 l-34 37 -106 3 -106 4 2 -204z m180 115 c48 -43 4
-107 -69 -101 -38 3 -38 3 -40 48 -1 25 0 51 2 58 6 18 85 15 107 -5z"/>
<path d="M6689 2061 c-107 -67 -120 -246 -24 -329 94 -84 251 -59 305 48 43
85 35 181 -22 246 -44 50 -77 64 -151 64 -52 0 -71 -5 -108 -29z m187 -72 c30
-28 47 -88 38 -134 -14 -78 -87 -121 -156 -92 -45 19 -69 54 -75 111 -6 53 16
104 55 129 37 24 105 17 138 -14z"/>
<path d="M7169 2073 c-2 -10 -2 -101 1 -203 l5 -185 30 0 30 1 3 127 c1 70 6
127 10 127 4 0 45 -56 92 -125 85 -126 106 -144 149 -130 21 6 21 11 19 203
l-3 197 -35 0 -35 0 -5 -129 -5 -129 -90 129 c-85 121 -92 129 -126 132 -28 2
-37 -1 -40 -15z"/>
<path d="M7710 1891 l0 -201 40 0 40 0 -2 198 -3 197 -37 3 -38 3 0 -200z"/>
<path d="M8596 2082 c-17 -28 -145 -385 -141 -393 4 -5 20 -9 36 -9 26 0 33 6
50 45 l20 45 78 0 79 0 15 -39 c13 -32 22 -39 49 -44 59 -9 62 -26 -58 286
l-46 117 -38 0 c-21 0 -41 -4 -44 -8z m69 -162 c10 -30 20 -61 23 -67 3 -9
-10 -13 -47 -13 -28 0 -51 3 -51 7 0 21 45 142 51 136 3 -5 15 -33 24 -63z"/>
<path d="M2626 1738 c-24 -34 -20 -73 10 -97 15 -12 35 -21 46 -21 27 0 68 45
68 75 0 59 -91 90 -124 43z"/>
<path d="M9847 1742 c-18 -19 -22 -68 -9 -89 20 -32 94 -32 114 0 14 22 8 74
-10 90 -25 22 -75 21 -95 -1z"/>
<path d="M8553 1549 c-19 -19 -15 -32 7 -26 12 3 34 2 49 -3 19 -5 33 -4 40 3
18 18 13 26 -16 25 -16 0 -37 3 -48 6 -11 4 -25 2 -32 -5z"/>
<path d="M5722 1479 c-100 -21 -133 -157 -56 -230 21 -20 36 -24 85 -24 47 0
63 4 81 22 17 18 20 25 10 35 -9 9 -20 8 -47 -5 -47 -22 -59 -22 -92 7 -22 19
-28 32 -28 64 0 74 67 115 123 76 18 -12 26 -13 37 -4 26 21 3 43 -65 62 -8 3
-30 1 -48 -3z"/>
<path d="M3240 1350 c0 -122 1 -130 19 -130 16 0 20 8 23 42 3 42 4 43 48 50
56 10 82 35 83 83 2 57 -36 85 -114 85 l-59 0 0 -130z m122 65 c14 -31 -3 -55
-42 -55 -35 0 -37 3 -32 45 4 31 7 35 33 35 22 0 32 -7 41 -25z"/>
<path d="M3541 1458 c-4 -13 -25 -67 -45 -121 -20 -53 -36 -102 -36 -107 0
-22 40 -9 52 18 11 23 20 27 60 30 44 3 48 1 63 -27 10 -20 23 -31 36 -31 27
0 25 10 -29 150 -36 93 -44 105 -66 108 -20 3 -28 -2 -35 -20z m68 -130 c1 -5
-15 -8 -35 -8 -38 0 -38 1 -12 70 10 25 10 25 28 -15 10 -22 19 -43 19 -47z"/>
<path d="M3780 1349 c0 -130 0 -130 23 -127 23 3 24 5 26 63 2 50 24 45 58
-15 21 -37 34 -50 51 -50 28 0 28 11 -3 61 l-26 40 26 30 c28 34 30 47 14 82
-15 33 -49 47 -114 47 l-55 0 0 -131z m120 71 c17 -33 -4 -62 -43 -58 -25 2
-33 8 -35 26 -6 37 5 52 37 52 20 0 34 -7 41 -20z"/>
<path d="M4080 1357 c-25 -67 -46 -125 -48 -129 -2 -5 8 -8 23 -8 20 0 28 7
36 30 10 28 14 30 61 30 46 0 51 -2 61 -30 8 -21 18 -30 34 -30 13 0 23 2 23
5 0 3 -21 61 -46 130 -43 117 -48 125 -73 125 -24 0 -29 -8 -71 -123z m99 -24
c1 -8 -11 -13 -29 -13 -35 0 -36 4 -14 56 l17 39 13 -35 c7 -19 13 -41 13 -47z"/>
<path d="M4510 1350 l0 -130 80 0 c73 0 80 2 80 20 0 18 -7 20 -55 20 l-55 0
0 35 c0 35 0 35 45 35 41 0 45 2 45 25 0 23 -4 25 -45 25 -43 0 -45 1 -45 30
0 30 1 30 55 30 48 0 55 2 55 20 0 18 -7 20 -80 20 l-80 0 0 -130z"/>
<path d="M4782 1457 c-26 -28 -28 -68 -4 -90 9 -8 36 -23 59 -32 48 -19 62
-43 37 -62 -24 -17 -40 -16 -70 4 -23 14 -27 14 -40 1 -14 -14 -13 -18 12 -37
41 -32 121 -25 146 13 9 14 10 59 2 81 -4 9 -31 27 -60 40 -55 24 -70 50 -38
62 10 3 31 1 47 -5 23 -9 34 -9 45 0 12 10 11 15 -8 30 -33 27 -101 24 -128
-5z"/>
<path d="M5069 1465 c-66 -36 -77 -151 -20 -209 28 -28 38 -31 90 -31 44 0 64
5 80 19 19 17 20 22 8 34 -13 12 -19 12 -45 -2 -43 -22 -59 -20 -93 13 -75 75
13 195 100 135 20 -15 25 -15 38 -2 13 14 11 18 -13 37 -32 25 -105 28 -145 6z"/>
<path d="M5330 1379 c0 -98 1 -101 29 -130 34 -33 83 -39 130 -14 38 19 41 30
41 146 0 92 -1 99 -20 99 -19 0 -20 -7 -20 -90 0 -77 -3 -93 -20 -110 -25 -25
-52 -26 -73 -2 -13 15 -17 39 -17 110 0 91 0 92 -25 92 l-25 0 0 -101z"/>
<path d="M5950 1478 c0 -2 -1 -59 -3 -128 -2 -123 -2 -125 21 -128 21 -3 22 0
22 52 l0 56 54 0 55 0 3 -52 c3 -46 6 -53 26 -56 22 -3 22 -3 22 127 l0 131
-25 0 c-24 0 -25 -3 -25 -56 l0 -57 -37 7 c-21 3 -46 6 -55 6 -15 0 -18 9 -18
50 0 43 -3 50 -20 50 -11 0 -20 -1 -20 -2z"/>
<path d="M6287 1360 c-26 -67 -47 -126 -47 -131 0 -22 41 -7 55 22 15 28 19
30 63 27 40 -3 49 -7 60 -30 9 -20 21 -28 39 -28 20 0 24 4 18 18 -4 9 -26 67
-49 127 -37 97 -45 110 -68 113 -23 3 -28 -4 -71 -118z m82 28 c25 -68 25 -68
-13 -68 l-35 0 16 45 c8 25 17 45 19 45 3 0 8 -10 13 -22z"/>
<path d="M6562 1353 c3 -124 4 -128 26 -131 20 -3 22 0 22 47 0 67 20 67 61 1
23 -38 37 -50 55 -50 30 0 30 2 -2 56 l-26 44 21 26 c28 36 27 79 -4 109 -21
22 -33 25 -90 25 l-66 0 3 -127z m122 65 c16 -26 -4 -52 -43 -56 -30 -3 -31
-2 -31 38 0 40 1 41 31 38 18 -2 37 -11 43 -20z"/>
<path d="M6991 1423 c18 -32 39 -67 46 -78 7 -11 13 -43 13 -72 0 -46 3 -53
20 -53 17 0 20 7 20 51 0 42 8 65 44 130 44 78 45 79 20 79 -19 0 -30 -11 -52
-50 -15 -27 -29 -50 -32 -50 -3 0 -16 21 -30 48 -19 37 -31 48 -53 50 l-28 3
32 -58z"/>
<path d="M7400 1350 l0 -130 75 0 c68 0 75 2 75 20 0 18 -7 20 -56 20 l-55 0
3 38 c3 36 4 37 46 40 28 2 42 8 42 17 0 9 -14 15 -42 17 -40 3 -43 5 -46 36
l-3 32 55 0 c49 0 56 2 56 20 0 18 -7 20 -75 20 l-75 0 0 -130z"/>
<path d="M7652 1353 c3 -120 4 -128 23 -128 18 0 20 8 25 85 l5 85 59 -88 c47
-69 64 -87 80 -85 20 3 21 10 24 131 l3 127 -25 0 c-25 0 -25 -2 -28 -82 l-3
-83 -58 83 c-47 65 -64 82 -83 82 l-25 0 3 -127z"/>
<path d="M7991 1454 c-38 -48 -21 -87 50 -114 52 -21 68 -42 50 -64 -17 -20
-50 -20 -79 0 -18 13 -26 13 -38 3 -33 -27 51 -70 110 -55 37 9 56 34 56 70 0
37 -13 51 -74 81 -50 24 -57 58 -13 63 16 2 34 -2 42 -8 15 -13 35 -6 35 12 0
20 -35 37 -77 38 -33 0 -46 -5 -62 -26z"/>
<path d="M8240 1350 l0 -130 75 3 c64 2 75 5 75 20 0 14 -9 17 -55 17 l-55 0
0 35 c0 35 0 35 44 35 25 0 47 4 50 8 10 16 -11 31 -49 34 -37 3 -40 5 -43 36
l-3 32 55 0 c49 0 56 2 56 20 0 18 -7 20 -75 20 l-75 0 0 -130z"/>
<path d="M8494 1466 c-3 -8 -4 -65 -2 -128 3 -105 4 -113 23 -113 18 0 20 8
25 84 l5 84 59 -86 c47 -68 64 -86 80 -83 20 3 21 9 21 127 0 121 -1 124 -22
127 -22 3 -23 1 -23 -77 0 -45 -3 -81 -7 -81 -5 0 -32 36 -61 80 -37 56 -58
80 -72 80 -12 0 -23 -6 -26 -14z"/>
<path d="M8885 1463 c-21 -55 -74 -201 -79 -220 -11 -35 34 -26 46 9 9 26 14
28 64 28 48 0 56 -3 63 -24 5 -13 19 -26 31 -29 19 -5 21 -3 15 21 -4 15 -25
73 -47 130 -34 89 -43 102 -63 102 -13 0 -26 -8 -30 -17z m48 -80 c3 -16 9
-36 12 -45 6 -15 1 -18 -30 -18 -33 0 -36 2 -29 23 23 74 38 87 47 40z"/>
<path d="M9125 1359 c-7 -124 -2 -148 29 -136 11 5 16 20 16 52 0 61 25 60 66
-3 20 -30 39 -48 53 -49 27 -2 27 -2 -8 54 l-30 47 25 23 c32 30 32 76 -1 108
-20 21 -34 25 -83 25 l-59 0 -8 -121z m119 65 c20 -19 20 -23 -1 -46 -9 -10
-29 -18 -45 -18 -26 0 -28 3 -28 40 0 38 2 40 29 40 16 0 37 -7 45 -16z"/>
</g>
</svg>
